<?xml version="1.0" standalone="no"?>
<!DOCTYPE svg PUBLIC "-//W3C//DTD SVG 1.1//EN" "http://www.w3.org/Graphics/SVG/1.1/DTD/svg11.dtd" >
<svg xmlns="http://www.w3.org/2000/svg" xmlns:xlink="http://www.w3.org/1999/xlink" version="1.1">
<metadata>
Created by FontForge 20170731 at Wed Aug  1 21:06:18 2012
 By Aleksey,,,
(c) 2009, 2010, 2011, 2012 GrandChaos9000. Some Rights Reserved.
</metadata>
<defs>
<font id="DimboItalic" horiz-adv-x="747" >
  <font-face 
    font-family="Dimbo"
    font-weight="400"
    font-style="italic"
    font-stretch="normal"
    units-per-em="2048"
    panose-1="2 11 6 3 1 1 1 1 1 1"
    ascent="1638"
    descent="-410"
    x-height="1077"
    cap-height="1506"
    bbox="-212 -418 2492 2009"
    underline-thickness="150"
    underline-position="-442"
    slope="-8"
    unicode-range="U+0020-E037"
  />
<missing-glyph horiz-adv-x="780" 
d="M740 1500v-1500h-700v1500h700zM240 1300v-1100h300v1100h-300z" />
    <glyph glyph-name=".notdef" horiz-adv-x="780" 
d="M740 1500v-1500h-700v1500h700zM240 1300v-1100h300v1100h-300z" />
    <glyph glyph-name=".null" horiz-adv-x="0" 
 />
    <glyph glyph-name="nonmarkingreturn" horiz-adv-x="682" 
 />
    <glyph glyph-name="space" unicode=" " horiz-adv-x="373" 
 />
    <glyph glyph-name="exclam" unicode="!" horiz-adv-x="335" 
d="M179 45q-60 0 -97 43q-30 35 -30 82q0 10 1 21q9 61 58 104t109 43q61 0 98 -43q30 -35 30 -81q0 -11 -2 -23q-8 -60 -57 -103t-110 -43zM500 1453q-86 -509 -161 -1006l-222 -5q50 426 119 1011h264z" />
    <glyph glyph-name="quotedbl" unicode="&#x22;" horiz-adv-x="713" 
d="M212 1221q115 32 146 123q-73 26 -92 62q-14 27 -14 60q0 10 1 21q7 45 30.5 79.5t61.5 52.5t74 19h2q33 0 62 -12q29 -13 45 -39t20 -55q1 -14 1 -31q0 -18 -2 -40l-1 -4q-5 -40 -23 -88q-18 -51 -51.5 -97t-91 -87.5t-160.5 -49.5zM545 1171q115 32 146 123
q-73 26 -92 62q-14 27 -14 60q0 10 1 21q7 45 30.5 79.5t61.5 52.5t74 19h2q33 0 62 -12q29 -13 45 -39t20 -55q1 -14 1 -31q0 -18 -2 -40l-1 -4q-5 -40 -23 -88q-18 -51 -51.5 -97t-91 -87.5t-160.5 -49.5z" />
    <glyph glyph-name="numbersign" unicode="#" horiz-adv-x="1309" 
d="M651 1476h209l-97 -304h263l97 304h209l-97 -304h199l-68 -209h-199l-133 -420h199l-67 -209h-199l-97 -304h-210l98 304h-262l-98 -304h-209l97 304h-199l67 209h199l134 420h-199l68 209h199zM696 963l-134 -420h262l135 420h-263z" />
    <glyph glyph-name="dollar" unicode="$" horiz-adv-x="909" 
d="M432 594q-14 -62 -22 -112q-7 -49 -7 -87q0 -140 89 -140h4q137 4 157 146l1 9q1 10 1 20q0 141 -218 276q-189 117 -189 361q0 49 7 102l3 18q48 295 338 337l25 176h150l-25 -173q231 -28 231 -304q0 -54 -9 -119q-5 -35 -12 -72l-263 -15q10 45 15 83q6 41 6 73
q0 106 -67 106q-105 0 -131 -107q-3 -15 -5 -30q-3 -20 -3 -39q0 -67 33 -127q48 -89 186.5 -163t178.5 -203q20 -63 20 -131q0 -33 -5 -67q-6 -40 -18 -82q-44 -151 -163 -251q-90 -74 -211 -98l-25 -181h-150l24 172q-132 13 -212 116q-60 76 -60 238q0 77 14 173
q5 36 12 75z" />
    <glyph glyph-name="percent" unicode="%" horiz-adv-x="1700" 
d="M1390 1560l-657 -1540l-166 30l657 1540zM632 1560q292 0 292 -293q0 -49 -8 -105q-2 -16 -6 -32q-74 -431 -423 -435q-4 -1 -8 -1q-282 0 -282 296q0 51 8 111l4 24q71 435 423 435zM566 1329q-65 -17 -103 -121q-22 -62 -31 -124q-6 -43 -6 -86q1 -106 87 -110h8
q80 0 121 79q35 66 47 156q3 22 6 45q1 22 1 41q0 84 -28 108q-23 18 -58 18q-20 0 -44 -6zM1450 906q292 0 292 -293q0 -49 -8 -105q-2 -16 -6 -32q-74 -431 -423 -435q-4 -1 -8 -1q-282 0 -282 296q0 51 8 111l4 24q71 435 423 435zM1384 675q-65 -17 -103 -121
q-22 -62 -31 -124q-6 -43 -6 -86q1 -106 87 -110h8q80 0 121 79q35 66 47 156q3 22 6 45q1 22 1 41q0 84 -28 108q-23 18 -58 18q-20 0 -44 -6z" />
    <glyph glyph-name="ampersand" unicode="&#x26;" horiz-adv-x="936" 
d="M350 785q-107 37 -146 110q-22 41 -22 114q0 41 7 93l4 30q28 164 108 258t195 121q59 14 122 14q62 0 128 -13q135 -26 182 -136q21 -52 21 -130q0 -52 -9 -115q-6 -46 -18 -99l-253 -11q5 27 8 51q6 43 6 77q0 127 -82 133h-13q-106 0 -133 -128q-5 -22 -8 -43
q-4 -31 -4 -59q0 -68 25 -115q36 -72 161 -72q15 0 32 1l-39 -190q-143 0 -215 -78q-54 -58 -65 -137q-3 -19 -3 -39q0 -10 1 -20q5 -110 127 -110q8 0 17 1q103 6 128 183q8 57 8 130v17l366 16l-24 -204l-111 -7v-4q-28 -199 -145 -289q-114 -88 -283 -88h-15
q-181 4 -254 95q-71 87 -71 206v10q1 57 7 106q9 60 26 110q31 90 85 143.5t149 67.5z" />
    <glyph glyph-name="quotesingle" unicode="'" horiz-adv-x="381" 
d="M212 1221q115 32 146 123q-73 26 -92 62q-14 27 -14 60q0 10 1 21q7 45 30.5 79.5t61.5 52.5t74 19h2q33 0 62 -12q29 -13 45 -39t20 -55q1 -14 1 -31q0 -18 -2 -40l-1 -4q-5 -40 -23 -88q-18 -51 -51.5 -97t-91 -87.5t-160.5 -49.5z" />
    <glyph glyph-name="parenleft" unicode="(" horiz-adv-x="553" 
d="M272 -200q-136 283 -136 667q0 158 23 333q71 500 380 900h200q-256 -400 -327 -900q-31 -221 -31 -415q0 -332 91 -585h-200z" />
    <glyph glyph-name="parenright" unicode=")" horiz-adv-x="553" 
d="M19 -200q256 400 341 1000q23 164 23 316q0 315 -97 584h200q145 -295 145 -645q0 -124 -18 -255q-90 -600 -394 -1000h-200z" />
    <glyph glyph-name="asterisk" unicode="*" horiz-adv-x="640" 
d="M464 1596h168l-41 -177l189 68l8 -152l-171 -49l89 -147l-144 -78l-69 168l-118 -174l-128 78l145 160l-165 35l74 162l147 -67z" />
    <glyph glyph-name="plus" unicode="+" horiz-adv-x="920" 
d="M129 630l35 250h290l41 290h250l-41 -290h300l-35 -250h-300l-42 -300h-250l42 300h-290z" />
    <glyph glyph-name="comma" unicode="," horiz-adv-x="381" 
d="M29 -79q115 32 146 123q-73 26 -92 62q-14 27 -14 60q0 10 1 21q7 45 30.5 79.5t61.5 52.5t74 19h2q33 0 62 -12q29 -13 45 -39t20 -55q1 -14 1 -31q0 -18 -2 -40l-1 -4q-5 -40 -23 -88q-18 -51 -51.5 -97t-91 -87.5t-160.5 -49.5z" />
    <glyph glyph-name="hyphen" unicode="-" horiz-adv-x="580" 
d="M662 870l-35 -250h-500l35 250h500z" />
    <glyph glyph-name="period" unicode="." horiz-adv-x="373" 
d="M192 45q-60 0 -97 43q-30 35 -30 82q0 10 1 21q9 61 58 104t109 43q61 0 98 -43q30 -35 30 -81q0 -11 -2 -23q-8 -60 -57 -103t-110 -43z" />
    <glyph glyph-name="slash" unicode="/" horiz-adv-x="600" 
d="M825 1600l-686 -1750l-163 50l676 1750z" />
    <glyph glyph-name="zero" unicode="0" horiz-adv-x="896" 
d="M694 1544q314 0 314 -455q0 -117 -21 -265q-101 -721 -524 -721q-339 0 -339 479q0 119 21 268q98 694 549 694zM411 817q-4 -27 -8 -52q-14 -100 -14 -174q0 -221 122 -221q172 0 234 447q18 126 18 216q0 231 -116 231q-161 0 -236 -447z" />
    <glyph glyph-name="one" unicode="1" horiz-adv-x="603" 
d="M774 1516q-73 -472 -139 -939q-33 -234 -64 -467l-249 -13q77 601 139 1113q-86 -17 -240 -84l-17 219l303 176z" />
    <glyph glyph-name="two" unicode="2" horiz-adv-x="855" 
d="M219 1052q4 60 11 111q25 179 101 258q97 101 229 121q47 7 91 7q79 0 149 -22q109 -35 153 -138q23 -56 23 -132q0 -41 -7 -88q-4 -26 -9 -55q-36 -172 -148 -316.5t-374 -413.5l436 -3l-38 -251q-289 -13 -742 -13l15 273q314 294 452 452q126 145 146 285l3 25
q1 13 1 25q0 125 -105 125h-4q-101 -3 -126 -182q-5 -34 -7 -73z" />
    <glyph glyph-name="three" unicode="3" horiz-adv-x="824" 
d="M188 1062q4 53 10 99q23 159 83 245q76 110 219 136q70 13 132 13q63 0 118 -14q107 -27 161 -121q39 -69 39 -177q0 -38 -5 -81l-4 -30q-20 -142 -73 -207q-59 -73 -176 -110q91 -14 130 -67.5t44 -143.5q1 -14 1 -28q0 -38 -6 -82q-7 -49 -22 -106q-33 -125 -132 -216
t-280 -95h-16q-169 0 -258 88q-63 62 -63 221q0 73 13 166l1 6l261 15q-4 -17 -6 -33q-6 -44 -6 -79q0 -132 86 -138q7 -1 14 -1q104 0 141 110q10 31 14 59q3 18 3 35q0 57 -29 102q-51 78 -194 78l15 190q17 -1 32 -1q125 0 182 72q53 67 69 174q2 21 4 43q1 10 1 19
q0 109 -98 109h-13q-106 -7 -135 -210q-3 -24 -6 -51z" />
    <glyph glyph-name="four" unicode="4" horiz-adv-x="921" 
d="M114 537l13 239q224 376 507 778l319 -18l-112 -772l140 -3l-33 -239h-137l-59 -421l-241 9l62 417zM609 761l76 516q-146 -254 -306 -511z" />
    <glyph glyph-name="five" unicode="5" horiz-adv-x="824" 
d="M105 545l238 20q-5 -39 -5 -71q0 -148 113 -148q137 0 167 131q13 61 22 123q10 71 13 143v15q0 116 -89 116h-6q-103 -5 -171 -159l-242 6l145 829l673 12l-31 -243l-446 -9l-66 -340q65 133 189 152q29 5 57 5q87 0 154 -46q81 -56 81 -253q0 -16 -1 -33
q-3 -77 -14 -151q-19 -140 -67 -265q-73 -191 -213 -237q-100 -33 -196 -33q-39 0 -78 6q-133 19 -199 117q-42 62 -42 171q0 48 8 104q3 18 6 38z" />
    <glyph glyph-name="six" unicode="6" horiz-adv-x="885" 
d="M425 804q98 147 246 147h2q149 -1 212 -109q51 -88 51 -197q0 -26 -3 -53l-4 -25q-18 -129 -80 -257q-67 -140 -177 -186q-80 -35 -174 -35q-34 0 -70 5q-135 17 -201.5 126t-77.5 290q-2 34 -2 71q0 105 17 227q8 58 21 119q45 236 114 384.5t173 211.5q101 61 220 61h6
q122 -2 195.5 -79t80.5 -210q1 -18 1 -35q0 -70 -10 -138q-6 -45 -16 -88h-224q7 35 11 65q7 53 7 92q0 100 -47 113q-18 4 -34 4q-58 0 -105 -59q-62 -76 -92 -210q-22 -91 -33 -167q-5 -36 -7 -68zM418 614q-7 -55 -7 -99q0 -60 14 -98q23 -66 86 -76q9 -2 20 -2
q50 0 95 41q49 45 66 162l3 20q2 19 2 35q0 101 -73 121q-14 3 -28 3q-77 0 -178 -107z" />
    <glyph glyph-name="seven" unicode="7" horiz-adv-x="826" 
d="M243 1274l46 250q363 6 699 9l-36 -254q-358 -570 -481 -1131l-233 27q120 543 444 1102z" />
    <glyph glyph-name="eight" unicode="8" horiz-adv-x="820" 
d="M718 805q128 -61 144 -176q6 -40 6 -81t-6 -83q-5 -38 -15 -77q-33 -125 -132.5 -216t-279.5 -95h-16q-169 0 -258 88q-77 76 -77 203q0 26 3 54l2 22q22 151 92 241q76 96 170 121q-63 27 -120 108q-44 60 -44 160q0 33 5 71l1 9q20 144 96 252q76 110 219 136
q70 13 132 13q63 0 118 -14q107 -27 160 -121q41 -72 41 -180q0 -32 -4 -68l-4 -29q-19 -134 -74 -208q-60 -83 -159 -130zM515 704q-110 -54 -138 -128q-16 -42 -21 -81q-4 -21 -4 -42q0 -8 1 -16q5 -66 40 -94q25 -21 62 -21q14 0 31 3q57 10 88 48.5t44 106.5q3 8 4 17
q3 19 3 37q0 38 -12 73q-19 60 -98 97zM548 956q111 45 142 145q12 38 17 70q2 18 2 33q0 29 -8 51q-19 55 -86 59h-9q-62 0 -105 -52q-34 -42 -43 -108q-3 -24 -3 -52v-2q0 -101 93 -144z" />
    <glyph glyph-name="nine" unicode="9" horiz-adv-x="885" 
d="M697 769q-98 -147 -246 -147q-1 0 -1 1q-150 0 -218 109q-51 81 -51 208q0 43 6 92q1 14 3 29q25 173 92 302q73 140 192 187q88 34 178 34q33 0 66 -5q125 -17 191.5 -126t77.5 -289q2 -35 2 -71q0 -106 -17 -228q-8 -58 -20 -118q-46 -237 -115 -385.5t-172 -210.5
q-102 -62 -230 -62q-3 0 -6 1q-133 1 -213 98q-55 66 -55 204q0 59 10 132l2 15h224q-5 -23 -8 -44q-4 -25 -4 -46q0 -73 44 -99q26 -18 55 -18q40 0 83 33q72 55 98 180q14 69 22 130q7 50 10 94zM714 959q6 34 10 64q10 72 10 125q0 54 -10 89q-26 85 -87 95q-9 1 -17 1
q-54 0 -107 -55q-56 -59 -78 -213l-3 -24q-3 -28 -3 -52q0 -123 91 -133q9 -2 20 -2q95 0 174 105z" />
    <glyph glyph-name="colon" unicode=":" horiz-adv-x="373" 
d="M192 45q-60 0 -97 43q-30 35 -30 82q0 10 1 21q9 61 58 104t109 43q61 0 98 -43q30 -35 30 -81q0 -11 -2 -23q-8 -60 -57 -103t-110 -43zM299 806q-60 0 -97 43q-30 35 -30 82q0 10 1 21q9 61 58 104t109 43q61 0 98 -43q30 -35 30 -81q0 -11 -2 -23q-8 -60 -57 -103
t-110 -43z" />
    <glyph glyph-name="semicolon" unicode=";" horiz-adv-x="381" 
d="M29 -79q115 32 146 123q-73 26 -92 62q-14 27 -14 60q0 10 1 21q7 45 30.5 79.5t61.5 52.5t74 19h2q33 0 62 -12q29 -13 45 -39t20 -55q1 -14 1 -31q0 -18 -2 -40l-1 -4q-5 -40 -23 -88q-18 -51 -51.5 -97t-91 -87.5t-160.5 -49.5zM299 806q-60 0 -97 43q-30 35 -30 80
q0 11 2 23q8 61 57.5 104t109.5 43q61 0 98 -43q29 -35 29 -83q0 -10 -1 -21q-9 -60 -58 -103t-110 -43z" />
    <glyph glyph-name="less" unicode="&#x3c;" horiz-adv-x="780" 
d="M138 700l28 200l763 450l-42 -300l-455 -250l385 -250l-42 -300z" />
    <glyph glyph-name="equal" unicode="=" horiz-adv-x="880" 
d="M1004 1170l-35 -250h-800l35 250h800zM934 670l-35 -250h-800l35 250h800z" />
    <glyph glyph-name="greater" unicode="&#x3e;" horiz-adv-x="780" 
d="M75 250l42 300l455 250l-385 250l43 300l636 -450l-28 -200z" />
    <glyph glyph-name="question" unicode="?" horiz-adv-x="855" 
d="M213 1002q3 60 11 111q25 179 101 258q97 101 229 121q47 7 91 7q79 0 149 -22q109 -35 152 -138q25 -61 25 -144q0 -43 -7 -93l-5 -33q-30 -167 -107 -276.5t-209 -158.5l-28 -183l-214 -4l44 333q165 24 218 142q36 82 47 160q5 33 5 65q-1 105 -115 105h-5
q-100 -3 -125 -182q-5 -34 -8 -73zM460 45q-60 0 -97 43q-30 35 -30 82q0 10 1 21q9 61 58 104t109 43q61 0 98 -43q30 -35 30 -81q0 -11 -2 -23q-8 -60 -57 -103t-110 -43z" />
    <glyph glyph-name="at" unicode="@" horiz-adv-x="1454" 
d="M840 330l57 406q-35 99 -110 99q-15 0 -31 -4q-101 -23 -145 -267q-5 -26 -8 -50q-8 -58 -8 -103q0 -109 48 -141q22 -16 50 -16q62 0 147 76zM951 942l28 154l216 4q-46 -325 -76 -535q-49 -350 -50 -379v-5q0 -41 34 -41q1 0 4 1q38 1 102.5 70.5t104.5 262.5
q10 46 17 95q16 113 16 234q0 41 -2 82q-10 218 -129.5 285.5t-303.5 71.5h-18q-172 0 -300 -72q-135 -77 -202 -241t-99 -366q-4 -19 -6 -38q-15 -101 -15 -193q0 -70 9 -134q20 -163 161 -262q91 -64 311 -64q118 0 272 18l-11 -166q-161 -20 -292 -20q-213 0 -344 53
q-215 84 -263 379q-17 100 -17 207q0 102 15 210q17 117 50 241q99 364 313 493q205 124 473 124h21q281 -5 423 -147q126 -127 126 -417q0 -35 -2 -72q-7 -111 -21 -208q-29 -208 -93 -354q-96 -216 -344 -243q-30 -4 -56 -4q-183 0 -183 164v18q-105 -106 -201 -109
q-7 -1 -13 -1q-87 0 -145 43q-64 45 -87 140q-17 69 -17 155q0 33 2 68q3 47 10 95q11 81 33 165q34 132 115.5 233.5t228.5 109.5h18q133 0 187 -105z" />
    <glyph glyph-name="A" unicode="A" horiz-adv-x="960" 
d="M-5 90q308 854 508 1448l375 6q51 -618 118 -1408l-263 -52l-28 379h-311l-141 -409zM737 744q-22 216 -97 517q-127 -253 -228 -524z" />
    <glyph glyph-name="B" unicode="B" horiz-adv-x="917" 
d="M496 1309l-53 -429q187 10 254 127q35 62 44 122q2 18 2 35q0 32 -8 64q-23 85 -167 85q-32 0 -72 -4zM426 674l-47 -335q23 -1 44 -1q186 0 249 102q35 57 41 103q2 11 2 21q0 32 -17 58q-35 55 -192 55q-37 0 -80 -3zM67 85q43 279 81 549q66 466 115 905
q173 18 301 18q235 0 317 -61q123 -91 123 -244v-10q-2 -41 -7 -79q-16 -109 -64 -189q-66 -109 -203 -156q142 -22 193 -105q30 -49 30 -129q0 -33 -5 -71q-3 -25 -9 -52q-36 -170 -143.5 -254t-281.5 -115q-98 -17 -227 -17q-101 0 -220 10z" />
    <glyph glyph-name="C" unicode="C" horiz-adv-x="885" 
d="M953 978l-222 -1l4 27q7 47 7 85q0 150 -106 150q-141 0 -202 -434q-22 -155 -22 -261q0 -228 101 -228h1q148 1 182 240l14 99h248l-11 -75q-70 -498 -482 -521q-12 -1 -24 -1q-303 0 -303 459q0 124 22 281q102 724 498 724q315 0 315 -346q0 -63 -10 -138
q-4 -29 -10 -60z" />
    <glyph glyph-name="D" unicode="D" horiz-adv-x="875" 
d="M469 1231q-64 -329 -107 -636q-16 -116 -30 -228q34 -8 66 -8q88 0 157 61q93 82 133 368l1 4q14 107 14 187q0 134 -41 191q-51 68 -135 68q-27 0 -58 -7zM60 88q49 337 100 694q50 358 101 735q117 14 214 14q270 0 383 -108q116 -113 116 -371q0 -81 -11 -176l-10 -72
q-48 -342 -135 -488q-96 -161 -297 -214q-116 -31 -250 -31q-100 0 -211 17z" />
    <glyph glyph-name="E" unicode="E" horiz-adv-x="798" 
d="M892 1490l-39 -282l-393 16l-46 -328l356 10l-29 -271h-317l-35 -254h415l-40 -284l-691 10q50 281 91 566q55 395 91 797q227 9 637 20z" />
    <glyph glyph-name="F" unicode="F" horiz-adv-x="731" 
d="M896 1511l-40 -282l-393 15l-53 -375l357 9l-30 -271h-317l-69 -493l-275 13q50 281 91 566q55 395 91 797q227 10 638 21z" />
    <glyph glyph-name="G" unicode="G" horiz-adv-x="981" 
d="M1016 959l-227 -2q6 52 6 94q0 163 -96 173h-18q-110 0 -199 -145q-88 -145 -126 -411l-6 -44q-5 -45 -5 -83q0 -215 172 -215q140 0 172 228q4 23 6 47l-199 -3l41 225l510 -8l-34 -245l-103 -2q-73 -522 -489 -522q-315 0 -315 410q0 92 16 204q7 51 18 107
q137 721 565 751q21 1 40 1q297 0 297 -336q0 -64 -11 -140q-6 -40 -15 -84z" />
    <glyph glyph-name="H" unicode="H" horiz-adv-x="904" 
d="M1065 1484q-107 -673 -227 -1450h-227l82 583h-285l-75 -536l-273 1q64 367 113 718q49 350 84 684h261l-93 -583l283 -12l87 619z" />
    <glyph glyph-name="I" unicode="I" horiz-adv-x="381" 
d="M339 127l-252 -23q103 734 170 1378l288 24q-106 -679 -206 -1379z" />
    <glyph glyph-name="J" unicode="J" horiz-adv-x="912" 
d="M160 689l266 18q-5 -29 -9 -55q-12 -89 -12 -149q0 -93 28 -121q29 -31 67 -31q30 0 64 18q76 39 109 273l3 23q32 255 94 828l288 17q-33 -281 -63 -496q-75 -535 -138 -667q-88 -187 -236 -232q-89 -27 -169 -27q-54 0 -104 13q-125 30 -171 130q-42 89 -42 189v21
q4 93 20 206z" />
    <glyph glyph-name="K" unicode="K" horiz-adv-x="904" 
d="M512 1473l-92 -625q212 322 392 589l278 -16q-178 -262 -477 -647q88 -255 274 -703l-319 -4q-59 233 -189 586l-75 -534l-240 -4q82 532 195 1338z" />
    <glyph glyph-name="L" unicode="L" horiz-adv-x="842" 
d="M568 1554q-91 -521 -144 -893q-20 -148 -35 -273l449 22l-39 -326l-716 -16q20 132 38 263q84 601 142 1196z" />
    <glyph glyph-name="M" unicode="M" horiz-adv-x="1307" 
d="M611 1533l88 -1036l306 960l455 -5q-58 -325 -104 -656q-52 -369 -90 -747l-294 -20q56 398 128 973l-287 -879l-313 -21l-67 948l-139 -960l-246 -17q53 329 99 653q57 404 101 798z" />
    <glyph glyph-name="N" unicode="N" horiz-adv-x="947" 
d="M63 79q60 342 106 666q52 374 85 725l296 14l165 -753q50 388 89 794l310 4q-132 -613 -220 -1238q-12 -84 -23 -168l-271 -3l-175 806q-50 -446 -92 -829z" />
    <glyph glyph-name="O" unicode="O" horiz-adv-x="952" 
d="M722 1524q339 0 339 -466q0 -114 -20 -254q-101 -721 -552 -721q-366 0 -366 492q0 114 20 255q98 694 579 694zM417 777q-5 -26 -8 -50q-12 -87 -12 -154q0 -223 135 -223q187 0 247 427q15 109 15 191q0 236 -129 236q-175 0 -248 -427z" />
    <glyph glyph-name="P" unicode="P" horiz-adv-x="879" 
d="M67 80q43 263 82 538q59 422 108 874q175 24 306 24q206 0 301 -60q117 -73 117 -267q0 -53 -9 -114l-5 -33q-54 -316 -199.5 -404.5t-341.5 -94.5q-5 -31 -10 -64q-23 -166 -38 -393zM489 1260l-62 -489q188 10 237 133q23 56 31 115q5 35 5 70q0 36 -5 72
q-15 107 -135 107q-32 0 -71 -8z" />
    <glyph glyph-name="Q" unicode="Q" horiz-adv-x="957" 
d="M796 -30q-40 77 -87 163q-95 -52 -216 -52q-366 0 -366 492q0 115 20 256q98 694 579 694q339 0 339 -467q0 -113 -20 -254q-48 -341 -174 -521q47 -77 93 -147zM421 775q-5 -26 -8 -50q-12 -87 -12 -154q0 -223 135 -223q25 0 48 8q-50 88 -106 183l165 157
q43 -83 84 -161q35 96 56 240q15 110 15 191q0 237 -129 237q-175 0 -248 -428z" />
    <glyph glyph-name="R" unicode="R" horiz-adv-x="895" 
d="M65 64q46 286 87 576q62 444 112 897q157 16 280 16q342 0 419 -125q55 -91 55 -197q0 -30 -4 -61q-9 -64 -35 -132q-89 -220 -283 -279q127 -18 177 -140q20 -49 20 -160q0 -156 -39 -434l-7 -43l-302 -4q23 126 37 226q22 157 22 251q0 87 -19 120q-46 76 -123 76
q-15 0 -31 -3q-37 -305 -55 -578zM495 1304l-53 -428q187 9 254 126q36 62 44 121q2 18 2 35q0 33 -8 65q-24 85 -167 85q-33 0 -72 -4z" />
    <glyph glyph-name="S" unicode="S" horiz-adv-x="909" 
d="M137 609l300 20q-14 -62 -22 -112q-7 -49 -7 -87q0 -140 89 -140h4q137 4 157 146l1 9q1 10 1 20q0 141 -218 276q-189 117 -189 360q0 49 7 102q1 10 4 20q54 337 426 343h8q284 0 284 -307q0 -55 -9 -120q-5 -34 -12 -72l-263 -15q10 45 15 83q6 41 6 73q0 106 -67 106
q-105 0 -131 -107q-3 -15 -5 -30q-3 -20 -3 -39q0 -67 33 -127q48 -89 186.5 -163t178.5 -203q20 -63 20 -131q0 -33 -5 -67q-6 -40 -18 -82q-44 -151 -163 -250.5t-297 -108.5q-12 -1 -24 -1q-161 0 -253 118q-60 76 -60 238q0 77 14 173q5 36 12 75z" />
    <glyph glyph-name="T" unicode="T" horiz-adv-x="835" 
d="M221 1232l37 263q146 -4 290 -4q224 0 441 9l-31 -280h-252q-100 -711 -143 -1128l-284 -14q122 710 195 1158z" />
    <glyph glyph-name="U" unicode="U" horiz-adv-x="912" 
d="M1077 1516l-139 -989q-65 -457 -483 -457h-22q-311 36 -311 321q0 30 3 62q96 685 138 1080h266q-42 -226 -85 -531q-30 -214 -60 -468q-4 -30 -4 -55q0 -131 111 -131q0 -1 1 -1q131 0 165 238l124 922z" />
    <glyph glyph-name="V" unicode="V" horiz-adv-x="913" 
d="M277 94q-27 674 -91 1409l296 30l17 -1096q212 575 360 1041l273 -34q-338 -907 -501 -1339z" />
    <glyph glyph-name="W" unicode="W" horiz-adv-x="1337" 
d="M471 1515l-48 -989l277 869l361 4l-18 -866l222 947l294 -39q-200 -654 -390 -1322l-366 -19l15 959l-321 -978l-340 14q13 479 13 977q0 210 -2 424z" />
    <glyph glyph-name="X" unicode="X" horiz-adv-x="913" 
d="M505 1513l107 -530l240 529l265 -13q-105 -216 -332 -683q50 -290 143 -729l-285 -28l-89 560l-245 -536l-278 40q146 284 354 693l-173 654z" />
    <glyph glyph-name="Y" unicode="Y" horiz-adv-x="835" 
d="M315 75l98 620q-160 482 -242 784l286 29l113 -558q185 402 291 599h273q-330 -603 -475 -873l-83 -589z" />
    <glyph glyph-name="Z" unicode="Z" horiz-adv-x="826" 
d="M237 1252l50 260q474 6 686 6l-37 -263q-336 -513 -552 -858q115 -3 219 -3q121 0 227 4l-30 -279q-263 11 -710 11l20 292q361 502 551 832z" />
    <glyph glyph-name="bracketleft" unicode="[" horiz-adv-x="553" 
d="M742 1700l-35 -250h-200l-197 -1400h200l-35 -250h-450l267 1900h450z" />
    <glyph glyph-name="backslash" unicode="\" horiz-adv-x="600" 
d="M402 1650l184 -1750l-177 -50l-194 1750z" />
    <glyph glyph-name="bracketright" unicode="]" horiz-adv-x="553" 
d="M742 1700l-267 -1900h-450l35 250h200l197 1400h-200l35 250h450z" />
    <glyph glyph-name="asciicircum" unicode="^" horiz-adv-x="980" 
d="M879 1700l216 -600h-250l-144 400l-256 -400h-250l384 600h300z" />
    <glyph glyph-name="underscore" unicode="_" horiz-adv-x="694" 
d="M671 -150l-28 -200h-700l28 200h700z" />
    <glyph glyph-name="grave" unicode="`" horiz-adv-x="395" 
d="M420 1181q-109 151 -200 255l182 130q58 -126 155 -265z" />
    <glyph glyph-name="a" unicode="a" horiz-adv-x="796" 
d="M583 1106q287 -16 287 -261q0 -33 -5 -70l-100 -710l-233 -4l5 95q-83 -82 -202 -82q-51 0 -108 16q-144 37 -144 206q0 32 5 68q4 28 12 60q53 237 370 237q61 0 133 -9l16 116q4 26 4 47q0 94 -73 94h-4q-7 1 -13 1q-97 0 -119 -158l-2 -15l-235 20q49 349 385 349h21z
M556 316l24 176q-41 9 -76 9q-91 0 -133 -61q-25 -37 -30 -69q-1 -6 -1 -12q0 -33 23 -59q22 -24 62 -24q51 0 131 40z" />
    <glyph glyph-name="b" unicode="b" horiz-adv-x="835" 
d="M518 1465q-54 -301 -85 -523q66 95 151 111q14 1 27 1q276 0 276 -338q0 -61 -9 -133l-3 -18q-66 -472 -413 -472q-83 0 -142 111l-29 -153l-237 1q56 366 104 704q52 371 94 709h266zM407 755l-54 -346q37 -106 117 -106q9 0 18 1q94 13 137 247q5 24 8 46q7 52 7 92
q0 110 -53 137q-23 11 -46 11q-63 0 -134 -82z" />
    <glyph glyph-name="c" unicode="c" horiz-adv-x="730" 
d="M514 462l236 -15q-51 -361 -385 -366q-4 -1 -7 -1q-261 0 -261 326q0 70 12 155l4 30q82 516 411 521h8q260 0 260 -256q0 -42 -7 -90q-2 -20 -6 -40l-217 -16l3 24q5 36 5 64q0 118 -83 118q-105 0 -146 -295l-5 -33q-10 -88 -10 -152q0 -167 72 -167h6q88 7 105 133
q4 27 5 60z" />
    <glyph glyph-name="d" unicode="d" horiz-adv-x="835" 
d="M1002 1465q-54 -338 -106 -709q-47 -338 -94 -704l-237 -1l14 153q-90 -111 -213 -111q-253 0 -253 318q0 69 12 152q1 10 4 20q72 471 370 471q12 0 25 -1q101 -6 149 -111q32 222 63 523h266zM603 409l44 346q-47 79 -108 79q-25 0 -52 -13q-84 -41 -111 -230
q-3 -22 -5 -45q-5 -46 -5 -84q0 -148 73 -158q9 -1 18 -1q80 0 146 106z" />
    <glyph glyph-name="e" unicode="e" 
d="M516 1077q293 0 293 -329q0 -60 -10 -132q-8 -56 -22 -120h-447q-10 -69 -10 -119q0 -138 73 -138h7q88 7 105 133q4 27 5 60l238 5q-53 -381 -387 -386q-4 -1 -7 -1q-261 0 -261 326q0 70 12 155l4 30q82 516 407 516zM332 680h226l3 24q5 36 5 64q0 118 -83 118
q-111 0 -151 -206z" />
    <glyph glyph-name="f" unicode="f" horiz-adv-x="699" 
d="M332 1041q2 27 6 55q13 94 46 193q41 129 169 206q95 58 228 58q44 0 93 -7l-33 -219q-29 4 -55 4q-83 0 -128 -41q-49 -43 -66 -168q-5 -30 -7 -66l215 3l-29 -203l-222 -14q-38 -328 -79 -620q-12 -88 -25 -172l-256 -11q50 333 121 788l-163 -8l26 215z" />
    <glyph glyph-name="g" unicode="g" horiz-adv-x="827" 
d="M593 330l57 406q-35 99 -110 99q-15 0 -32 -4q-100 -23 -144 -267q-5 -26 -8 -50q-8 -59 -8 -104q0 -108 47 -140q23 -16 51 -16q62 0 147 76zM59 -66l237 13q-3 -12 -4 -24q-3 -17 -3 -32q0 -79 73 -87q14 -2 26 -2q75 0 115 60q36 54 56 202q6 40 11 88
q-72 -112 -225 -122q-240 2 -240 330q0 78 14 175l1 7q73 508 424 511q96 0 157 -112l25 159l218 -10q-116 -825 -149 -1022t-104 -316t-207 -152q-71 -18 -139 -18q-61 0 -119 14q-124 30 -161 113q-20 45 -20 109q0 32 5 69q4 22 9 47z" />
    <glyph glyph-name="h" unicode="h" horiz-adv-x="791" 
d="M486 1483l-69 -563q60 130 215 132h3q152 0 196 -138q12 -36 12 -111q0 -117 -30 -329q-23 -170 -67 -402h-252q56 309 80 479q12 85 16 136q1 19 1 36q0 114 -66 114q-76 0 -109 -80l-92 -725l-245 -2q65 460 162 1443z" />
    <glyph glyph-name="i" unicode="i" horiz-adv-x="335" 
d="M503 1307q-8 -61 -57 -104t-110 -43q-60 0 -97 43q-30 35 -30 83q0 10 1 21q9 60 58 103t109 43q61 0 98 -43q30 -35 30 -80q0 -11 -2 -23zM58 45q75 585 135 1011l254 15q-69 -408 -126 -811q-15 -108 -29 -215h-234z" />
    <glyph glyph-name="j" unicode="j" horiz-adv-x="335" 
d="M194 1037l248 18q-39 -305 -70 -529q-40 -281 -68 -437q-49 -280 -171 -380q-107 -88 -289 -88q-27 0 -56 2l8 254q41 -7 75 -7q95 0 138 55q58 73 90 305l2 10q32 239 93 797zM504 1307q-9 -61 -58 -104t-110 -43q-60 0 -97 43q-30 35 -30 81q0 11 2 23q8 60 57 103
t109 43q61 0 98 -43q30 -35 30 -82q0 -10 -1 -21z" />
    <glyph glyph-name="k" unicode="k" horiz-adv-x="808" 
d="M492 1473l-113 -775q167 212 316 409l227 -26q-217 -252 -383 -477q85 -205 238 -533l-252 -24q-77 243 -187 456l-54 -384l-220 -4q82 532 195 1338z" />
    <glyph glyph-name="l" unicode="l" horiz-adv-x="367" 
d="M330 67l-252 -23q51 331 94 637q60 430 106 811l245 4q-38 -245 -75 -503q-62 -445 -118 -926z" />
    <glyph glyph-name="m" unicode="m" horiz-adv-x="1140" 
d="M355 1098l-18 -160q70 115 145 143q44 16 87 16q32 0 63 -8q75 -20 88 -160q42 109 111 145.5t147 37.5h4q76 0 141 -37q66 -38 89 -142q11 -52 11 -123q0 -72 -12 -164l-82 -581l-217 -5q59 329 92 560q9 63 9 110q0 126 -62 139q-13 2 -25 2q-70 0 -120 -90
q-21 -104 -41 -243q-26 -189 -51 -441l-250 -2q69 387 93 564l2 12q6 46 6 81q0 96 -49 103h-13q-61 0 -128 -70l-101 -732l-237 -9l23 164q61 436 109 871z" />
    <glyph glyph-name="n" unicode="n" horiz-adv-x="786" 
d="M379 1103l-13 -163q60 130 240 132h4q176 0 220 -138q12 -36 12 -111q0 -117 -30 -329q-23 -170 -67 -402h-242q56 309 80 479q12 85 16 136q1 17 1 32q0 118 -76 118q-86 0 -119 -80l-92 -725l-235 -2q65 460 114 1033z" />
    <glyph glyph-name="o" unicode="o" 
d="M543 1077q285 0 285 -331q0 -64 -11 -141l-6 -38q-86 -511 -435 -516q-4 -1 -8 -1q-275 0 -275 332q0 69 12 151l4 28q82 516 434 516zM478 849q-66 -22 -109 -163q-25 -84 -37 -169q-8 -57 -11 -115v-12q0 -132 83 -137h7q81 0 126 107q37 89 54 211q4 30 8 61
q4 47 4 84q0 89 -24 117q-22 24 -57 24q-20 0 -44 -8z" />
    <glyph glyph-name="p" unicode="p" horiz-adv-x="835" 
d="M-3 -349q53 337 107 717q48 346 97 726l237 1l-14 -154q90 112 213 112q251 0 251 -325q0 -72 -12 -160l-3 -20q-75 -486 -374 -486q-12 0 -24 1q-101 5 -149 111q-32 -222 -63 -523h-266zM399 736l-47 -376q47 -79 106 -79q24 0 50 14q78 40 106 239q3 24 6 50
q5 54 5 96q0 151 -66 161q-9 1 -17 1q-76 0 -143 -106z" />
    <glyph glyph-name="q" unicode="q" horiz-adv-x="835" 
d="M489 -399q46 321 78 543q-73 -106 -226 -111q-236 0 -236 330q0 81 14 180q-1 2 -1 4q71 506 423 506q103 0 162 -112l29 154l217 -1q-60 -395 -110 -748q-55 -388 -96 -725zM593 330l57 406q-35 99 -110 99q-15 0 -32 -4q-100 -23 -144 -267q-5 -26 -8 -50
q-8 -59 -8 -104q0 -108 47 -140q23 -16 51 -16q62 0 147 76z" />
    <glyph glyph-name="r" unicode="r" horiz-adv-x="759" 
d="M414 767l-92 -725l-245 -2q65 460 114 1033l187 20l-13 -163q59 120 215 137q24 2 45 2q121 0 173 -79q40 -64 40 -179q0 -54 -9 -120l-225 -22q4 17 6 33q5 35 5 62q0 98 -65 98h-4q-97 -5 -132 -95z" />
    <glyph glyph-name="s" unicode="s" horiz-adv-x="710" 
d="M85 405l231 11l-2 -13q-4 -29 -4 -53q0 -101 77 -103h4q92 0 105 89l1 7v10q0 91 -160 148q-169 60 -185 202q-3 23 -3 45q0 26 4 51q12 84 65 156q81 110 217 126q37 4 71 4q89 0 153 -31q86 -43 111 -123q11 -35 11 -74q0 -23 -4 -48q-4 -32 -14 -66l-215 -5
q7 25 10 46q3 18 3 33q0 68 -52 74q-7 1 -14 1q-66 0 -99 -67q-11 -23 -14 -42q-1 -6 -1 -12q0 -40 34 -69q55 -48 169.5 -97.5t140.5 -168.5q5 -26 5 -52q0 -19 -3 -38q-11 -76 -65 -153q-88 -123 -238 -143q-32 -5 -63 -5q-110 0 -196 57t-86 212q0 42 6 91z" />
    <glyph glyph-name="t" unicode="t" horiz-adv-x="671" 
d="M403 1396l230 15l-47 -331l192 5l-24 -189l-195 -9l-64 -455q-3 -22 -3 -41q0 -118 116 -118q28 0 62 7l-40 -220q-49 -6 -92 -6q-280 0 -280 257q0 32 4 69l68 489l-165 -10l27 223l168 -2z" />
    <glyph glyph-name="u" unicode="u" horiz-adv-x="786" 
d="M566 50l13 163q-60 -130 -244 -131q-2 -1 -3 -1q-182 0 -218 164q-9 37 -9 102q0 124 32 349q25 176 69 415h243q-67 -336 -92 -517q-13 -91 -15 -142q-1 -12 -1 -23q0 -133 80 -133q86 0 119 81l88 694l235 2q-60 -430 -110 -1002z" />
    <glyph glyph-name="v" unicode="v" horiz-adv-x="755" 
d="M236 76q-44 579 -86 994l245 13l21 -727q153 408 257 744l235 -30q-172 -419 -402 -990z" />
    <glyph glyph-name="w" unicode="w" horiz-adv-x="1168" 
d="M377 1107l-9 -757l224 700l280 10l52 -648l190 695l218 -20q-159 -479 -308 -1009l-297 -13l-11 686l-263 -676l-272 -13q-28 490 -52 1009z" />
    <glyph glyph-name="x" unicode="x" horiz-adv-x="812" 
d="M445 1096l50 -393l160 396l259 -31q-119 -195 -262 -475q58 -242 133 -495l-262 -28l-72 385l-173 -382l-241 32q141 243 269 478l-129 473z" />
    <glyph glyph-name="y" unicode="y" horiz-adv-x="803" 
d="M190 1081l265 21q-52 -300 -79 -494q-10 -73 -16 -131q-6 -48 -6 -85q0 -130 71 -135q6 -1 11 -1q82 0 117 94q20 55 49 261q23 165 51 426l249 18q-39 -305 -70 -524q-38 -273 -64 -412q-45 -250 -196 -380q-137 -118 -354 -118q-25 0 -50 2l6 244q19 -1 37 -1
q168 0 238 59q73 61 92 196l2 16q-70 -90 -188 -90h-14q-128 6 -185 102q-45 73 -45 191q0 36 5 77q17 172 74 664z" />
    <glyph glyph-name="z" unicode="z" horiz-adv-x="685" 
d="M197 1082q87 -2 196 -2q175 0 406 5l-23 -204l-441 -600h356l-34 -219q-251 0 -612 -10l19 194l463 635q-179 0 -355 -13z" />
    <glyph glyph-name="braceleft" unicode="{" horiz-adv-x="830" 
d="M797 50l-35 -250h-100q-351 0 -351 308q0 43 7 92l38 270q2 12 2 22q0 128 -231 128l35 250q250 0 271 150l40 280q56 400 456 400h100l-35 -250h-100q-150 0 -171 -150l-43 -300q-28 -200 -235 -250q169 -44 169 -202q0 -23 -4 -48l-42 -300q-3 -18 -3 -35
q0 -115 132 -115h100z" />
    <glyph glyph-name="bar" unicode="|" horiz-adv-x="330" 
d="M529 1700l-267 -1900h-250l267 1900h250z" />
    <glyph glyph-name="braceright" unicode="}" horiz-adv-x="830" 
d="M147 50q150 0 171 150l42 300q28 200 236 250q-169 44 -169 202q0 23 4 48l42 300q3 18 3 35q0 115 -132 115h-100l35 250h100q351 0 351 -308q0 -43 -7 -92l-40 -280q-2 -12 -2 -22q0 -128 231 -128l-35 -250q-250 0 -271 -150l-38 -270q-56 -400 -456 -400h-100l35 250
h100z" />
    <glyph glyph-name="asciitilde" unicode="~" horiz-adv-x="883" 
d="M136 614q51 366 295 366q122 0 177 -91q45 -77 92 -77q10 0 19 4q58 18 78 164h183q-51 -366 -295 -366q-122 0 -182 92q-50 76 -94 76q-9 0 -18 -3q-51 -19 -72 -165h-183z" />
    <glyph glyph-name="uni00A0" unicode="&#xa0;" horiz-adv-x="373" 
 />
    <glyph glyph-name="exclamdown" unicode="&#xa1;" horiz-adv-x="335" 
d="M329 1099q60 0 97 -43q30 -35 30 -80q0 -11 -2 -23q-8 -61 -57 -104t-109 -43q-61 0 -98 43q-30 35 -30 83q0 10 1 21q9 60 58 103t110 43zM8 -309q86 509 160 1006l223 5q-50 -426 -119 -1011h-264z" />
    <glyph glyph-name="cent" unicode="&#xa2;" horiz-adv-x="730" 
d="M807 857q-44 -315 -304 -359l-28 -198h-150l28 195q-199 37 -199 323q0 69 12 153l5 30q70 444 324 509l27 190h150l-26 -182q204 -26 204 -253q0 -42 -7 -90q-3 -19 -6 -39l-218 -16l4 24q5 36 5 64q0 118 -83 118q-105 0 -146 -295l-5 -33q-11 -90 -11 -154
q0 -165 72 -165h6q88 7 106 133q4 27 5 60z" />
    <glyph glyph-name="sterling" unicode="&#xa3;" horiz-adv-x="919" 
d="M746 1040l4 28q7 49 7 86q0 121 -72 121h-11q-112 -14 -138 -199l-1 -10q-15 -118 -20 -226h293l-31 -220h-267l-2 -11q-17 -124 -82 -267q38 -4 79 -4q164 0 356 65l40 -248q-198 -64 -358 -71q-66 -3 -160 -3q-133 0 -321 6l29 253l143 -1q34 94 46 179q6 46 6 90v12
h-159l31 220h102q-1 27 -1 54q0 76 10 156l2 9q24 175 118 295q96 122 231 146q54 9 102 9q69 0 122 -19q91 -34 137 -146q23 -59 23 -138q0 -43 -7 -93q-4 -32 -12 -67z" />
    <glyph glyph-name="yen" unicode="&#xa5;" horiz-adv-x="1033" 
d="M392 75l37 235h-328l24 170h331l20 130h-333l24 170h295q-139 424 -214 699l286 29l113 -558q185 402 291 599h273q-273 -499 -419 -769h275l-24 -170h-316l-18 -130h316l-24 -170h-316l-31 -223z" />
    <glyph glyph-name="dieresis" unicode="&#xa8;" horiz-adv-x="777" 
d="M361 1245q-60 0 -97 43q-30 35 -30 82q0 10 1 21q9 61 58 104t109 43q61 0 98 -43q30 -35 30 -81q0 -11 -2 -23q-8 -60 -57 -103t-110 -43zM771 1245q-60 0 -97 43q-30 35 -30 82q0 10 1 21q9 61 58 104t109 43q61 0 98 -43q30 -35 30 -81q0 -11 -2 -23q-8 -60 -57 -103
t-110 -43z" />
    <glyph glyph-name="copyright" unicode="&#xa9;" horiz-adv-x="1108" 
d="M871 769l-115 1q1 19 1 34q0 59 -20 76q-11 8 -23 8q-19 0 -43 -21q-39 -35 -62 -193q-2 -4 -2 -8q-5 -39 -5 -68q0 -84 45 -86q1 -1 3 -1q59 0 82 129l126 -3q-44 -208 -154 -242q-44 -13 -80 -13q-56 0 -92 32q-60 52 -67 146q-2 26 -2 51q0 43 6 86q4 26 10 54
q23 106 92 181t156 76h1q86 0 122 -53q25 -37 25 -115q0 -32 -4 -71zM738 1111h-19q-158 0 -246 -96q-95 -103 -140 -241q-19 -54 -26 -107q-5 -37 -5 -74q0 -46 8 -92q22 -135 153 -190q77 -33 159 -33q58 0 118 16q146 39 212 158q51 94 69 222q5 34 7 71q2 25 2 49
q0 138 -55 218q-65 93 -237 99zM774 1248q249 -13 324 -137q62 -104 62 -282q0 -35 -3 -74q-4 -51 -11 -99q-23 -166 -87 -286q-84 -155 -288 -212q-91 -26 -178 -26q-106 0 -206 39q-180 70 -215 254q-14 71 -14 143q0 51 7 102q9 62 28 124q57 184 195 326
q126 129 345 129q20 0 41 -1z" />
    <glyph glyph-name="guillemotleft" unicode="&#xab;" horiz-adv-x="936" 
d="M148 700l286 400h220l-256 -400l144 -400h-220zM544 700l286 400h220l-256 -400l144 -400h-220z" />
    <glyph glyph-name="logicalnot" unicode="&#xac;" horiz-adv-x="920" 
d="M129 630l35 250h840l-77 -550h-250l42 300h-590z" />
    <glyph glyph-name="registered" unicode="&#xae;" horiz-adv-x="1108" 
d="M732 1099h-19q-156 0 -245 -95q-93 -102 -138 -238q-18 -53 -25 -105q-5 -37 -5 -74q0 -45 8 -91q22 -134 152 -189q76 -33 158 -33q57 0 116 16q144 39 209 157q50 93 68 221q5 33 8 69q2 25 2 49q0 136 -55 215q-64 92 -234 98zM774 1248q249 -13 324 -137
q62 -104 62 -282q0 -35 -3 -74q-4 -51 -11 -99q-23 -166 -87 -286q-84 -155 -288 -212q-91 -26 -178 -26q-106 0 -206 39q-180 70 -215 254q-14 71 -14 143q0 51 7 102q9 62 28 124q57 184 195 326q126 129 345 129q20 0 41 -1zM631 878l-23 -177h7q40 0 75 22q38 24 45 75
q2 12 2 22q0 33 -18 48q-16 12 -53 12q-16 0 -35 -2zM433 412l20 145q31 218 61 443q65 5 118 5q81 0 131 -11q81 -19 100 -87q7 -28 7 -55q0 -15 -2 -29q-4 -27 -14 -52q-27 -68 -100 -96q73 -16 81 -67q2 -15 2 -37q0 -55 -14 -156l-136 -4q3 18 6 34q5 37 5 64
q0 43 -13 61q-22 29 -77 29q-9 0 -20 -1l-25 -184z" />
    <glyph glyph-name="degree" unicode="&#xb0;" horiz-adv-x="690" 
d="M808 1130q-17 -124 -117.5 -212t-224.5 -88t-199 88q-62 72 -62 168q0 21 3 44q18 124 118.5 212t224.5 88t200 -88q60 -71 60 -166q0 -22 -3 -46zM527 1265q-56 0 -101 -39.5t-53 -95.5q-1 -10 -1 -19q0 -44 28 -76q33 -40 89 -40t101.5 39.5t52.5 95.5q2 11 2 21
q0 43 -28 75q-34 39 -90 39z" />
    <glyph glyph-name="plusminus" unicode="&#xb1;" horiz-adv-x="920" 
d="M150 780l35 250h290l40 290h250l-40 -290h300l-35 -250h-300l-43 -300h-250l43 300h-290zM47 50l35 250h840l-35 -250h-840z" />
    <glyph glyph-name="acute" unicode="&#xb4;" horiz-adv-x="395" 
d="M201 1301q137 139 229 265l146 -130q-121 -104 -272 -255z" />
    <glyph glyph-name="mu" unicode="&#xb5;" horiz-adv-x="786" 
d="M566 50l9 133q-67 -100 -145 -110q-10 -2 -20 -2q-64 0 -103 59l-64 -460l-251 -10q85 509 153 995q32 231 61 456h233q-40 -252 -64 -416q-22 -163 -28 -238q-1 -17 -1 -32q0 -119 76 -119q86 0 119 81l86 684l236 2q-61 -430 -110 -1002z" />
    <glyph glyph-name="paragraph" unicode="&#xb6;" horiz-adv-x="1130" 
d="M1297 1470l-204 -1450h-250l168 1200h-150l-168 -1200h-250l94 670q-352 0 -352 301q0 42 7 89q55 390 445 390h660z" />
    <glyph glyph-name="periodcentered" unicode="&#xb7;" horiz-adv-x="381" 
d="M252 629q-51 0 -82 37q-26 29 -26 69q0 9 1 18q7 52 49 88.5t93 36.5q52 0 83 -36q25 -30 25 -70q0 -9 -1 -19q-7 -51 -48.5 -87.5t-93.5 -36.5z" />
    <glyph glyph-name="cedilla" unicode="&#xb8;" horiz-adv-x="429" 
d="M105 -237l-87 9q32 156 50 232h122l-21 -89q29 21 62 21q18 0 37 -6q53 -17 73 -79q7 -26 7 -53q0 -14 -2 -29q-3 -25 -13 -51q-26 -70 -101 -106q-48 -23 -126 -23q-45 0 -101 8l7 119q55 -6 94 -6q63 0 85 15q23 16 26 37q1 4 1 8q0 6 -2 12q-8 27 -38 27q-7 0 -14 -1
q-42 -7 -59 -45z" />
    <glyph glyph-name="guillemotright" unicode="&#xbb;" horiz-adv-x="936" 
d="M312 300h-220l256 400l-144 400h220l174 -400zM708 300h-220l256 400l-144 400h220l174 -400z" />
    <glyph glyph-name="questiondown" unicode="&#xbf;" horiz-adv-x="855" 
d="M811 142q-3 -60 -10 -111q-25 -179 -100 -257q-99 -102 -229 -121q-49 -8 -93 -8q-79 0 -148 23q-110 34 -152 137q-26 61 -26 145q0 43 7 92q2 16 6 33q29 167 106 276.5t209 158.5l29 183l213 4l-44 -333q-165 -24 -217 -142q-37 -82 -48 -160q-4 -27 -4 -54v-11
q0 -105 114 -105q2 0 5 1q101 2 126 181q5 34 7 73zM565 1099q60 0 97 -43q30 -35 30 -80q0 -11 -2 -23q-8 -61 -57 -104t-109 -43q-61 0 -98 43q-30 35 -30 83q0 10 1 21q9 60 58 103t110 43z" />
    <glyph glyph-name="Agrave" unicode="&#xc0;" horiz-adv-x="960" 
d="M-5 90q308 854 508 1448l375 6q51 -618 118 -1408l-263 -52l-28 379h-311l-141 -409zM737 744q-22 216 -97 517q-127 -253 -228 -524zM705 1610q-109 151 -201 255l183 130q57 -126 154 -265z" />
    <glyph glyph-name="Aacute" unicode="&#xc1;" horiz-adv-x="960" 
d="M-5 90q308 854 508 1448l375 6q51 -618 118 -1408l-263 -52l-28 379h-311l-141 -409zM737 744q-22 216 -97 517q-127 -253 -228 -524zM604 1730q137 139 230 265l145 -130q-120 -104 -271 -255z" />
    <glyph glyph-name="Acircumflex" unicode="&#xc2;" horiz-adv-x="960" 
d="M-5 90q308 854 508 1448l375 6q51 -618 118 -1408l-263 -52l-28 379h-311l-141 -409zM737 744q-22 216 -97 517q-127 -253 -228 -524zM414 1659l222 300h240l138 -300h-200l-79 150l-121 -150h-200z" />
    <glyph glyph-name="Atilde" unicode="&#xc3;" horiz-adv-x="960" 
d="M-5 90q308 854 508 1448l375 6q51 -618 118 -1408l-263 -52l-28 379h-311l-141 -409zM737 744q-22 216 -97 517q-127 -253 -228 -524zM390 1669q42 300 242 300q100 0 145 -75q37 -62 76 -62q8 0 15 2q47 15 64 135h150q-42 -300 -242 -300q-100 0 -150 75q-41 63 -77 63
q-7 0 -14 -3q-42 -15 -59 -135h-150z" />
    <glyph glyph-name="Adieresis" unicode="&#xc4;" horiz-adv-x="960" 
d="M-5 90q308 854 508 1448l375 6q51 -618 118 -1408l-263 -52l-28 379h-311l-141 -409zM737 744q-22 216 -97 517q-127 -253 -228 -524zM507 1654q-60 0 -97 43q-30 35 -30 82q0 10 1 21q9 61 58 104t109 43q61 0 98 -43q30 -35 30 -81q0 -11 -2 -23q-8 -60 -57 -103
t-110 -43zM917 1654q-60 0 -97 43q-30 35 -30 82q0 10 1 21q9 61 58 104t109 43q61 0 98 -43q30 -35 30 -81q0 -11 -2 -23q-8 -60 -57 -103t-110 -43z" />
    <glyph glyph-name="Aring" unicode="&#xc5;" horiz-adv-x="960" 
d="M-5 90q308 854 508 1448l375 6q51 -618 118 -1408l-263 -52l-28 379h-311l-141 -409zM737 744q-22 216 -97 517q-127 -253 -228 -524zM935 1809q-12 -83 -79 -141.5t-150 -58.5t-133 59q-40 47 -40 110q0 15 2 31q11 83 78 141.5t150 58.5t133 -58q41 -48 41 -113
q0 -14 -2 -29zM746 1892q-34 0 -61.5 -24.5t-31.5 -58.5q-1 -7 -1 -13q0 -26 17 -45q20 -24 54 -24t62 24t33 58q1 5 1 11q0 27 -18 48q-21 24 -55 24z" />
    <glyph glyph-name="AE" unicode="&#xc6;" horiz-adv-x="1376" 
d="M1431 1208l-393 16l-46 -328l357 10l-29 -271h-317l-36 -254h415l-40 -284l-691 10q32 177 59 356h-276l-141 -409l-258 36q308 854 498 1378l938 22zM809 1232l-124 -1q-102 -223 -203 -494l269 6z" />
    <glyph glyph-name="Ccedilla" unicode="&#xc7;" horiz-adv-x="885" 
d="M731 977l4 27q7 47 7 85q0 150 -106 150q-141 0 -202 -434q-22 -155 -22 -261q0 -228 101 -228h1q148 1 182 240l14 99h248l-11 -75q-66 -473 -441 -518l-22 -87q29 21 62 21q18 0 37 -6q54 -17 73 -79q8 -27 8 -54q0 -14 -2 -28q-4 -25 -13 -51q-26 -70 -101 -106
q-48 -23 -126 -23q-45 0 -101 8l6 119q56 -6 95 -6q63 0 85 15q23 16 26 37v7q0 6 -1 13q-9 27 -39 27q-7 0 -14 -1q-42 -7 -58 -45l-88 9q32 155 51 230q-246 41 -246 454q0 124 22 282q102 724 498 724q315 0 315 -346q0 -63 -10 -138q-4 -29 -10 -60z" />
    <glyph glyph-name="Egrave" unicode="&#xc8;" horiz-adv-x="798" 
d="M892 1490l-39 -282l-393 16l-46 -328l356 10l-29 -271h-317l-35 -254h415l-40 -284l-691 10q50 281 91 566q55 395 91 797q227 9 637 20zM617 1560q-109 151 -200 255l182 130q58 -126 155 -265z" />
    <glyph glyph-name="Eacute" unicode="&#xc9;" horiz-adv-x="798" 
d="M892 1490l-39 -282l-393 16l-46 -328l356 10l-29 -271h-317l-35 -254h415l-40 -284l-691 10q50 281 91 566q55 395 91 797q227 9 637 20zM516 1680q137 139 229 265l146 -130q-121 -104 -272 -255z" />
    <glyph glyph-name="Ecircumflex" unicode="&#xca;" horiz-adv-x="798" 
d="M892 1490l-39 -282l-393 16l-46 -328l356 10l-29 -271h-317l-35 -254h415l-40 -284l-691 10q50 281 91 566q55 395 91 797q227 9 637 20zM328 1629l222 300h240l138 -300h-200l-79 150l-121 -150h-200z" />
    <glyph glyph-name="Edieresis" unicode="&#xcb;" horiz-adv-x="798" 
d="M893 1490l-39 -282l-393 16l-46 -328l356 10l-29 -271h-317l-35 -254h415l-40 -284l-691 10q50 281 91 566q55 395 91 797q227 9 637 20zM419 1604q-60 0 -97 43q-30 35 -30 80q0 11 2 23q8 61 57.5 104t109.5 43q61 0 98 -43q29 -35 29 -83q0 -10 -1 -21
q-9 -60 -58 -103t-110 -43zM829 1604q-60 0 -97 43q-30 35 -30 80q0 11 2 23q8 61 57.5 104t109.5 43q61 0 98 -43q29 -35 29 -83q0 -10 -1 -21q-9 -60 -58 -103t-110 -43z" />
    <glyph glyph-name="Igrave" unicode="&#xcc;" horiz-adv-x="381" 
d="M339 127l-252 -23q103 734 170 1378l288 24q-106 -679 -206 -1379zM414 1590q-109 151 -200 255l182 130q57 -126 155 -265z" />
    <glyph glyph-name="Iacute" unicode="&#xcd;" horiz-adv-x="381" 
d="M339 127l-252 -23q103 734 170 1378l288 24q-106 -679 -206 -1379zM313 1710q136 139 229 265l146 -130q-121 -104 -272 -255z" />
    <glyph glyph-name="Icircumflex" unicode="&#xce;" horiz-adv-x="381" 
d="M340 127l-252 -23q103 734 170 1378l288 24q-106 -679 -206 -1379zM126 1659l222 300h240l138 -300h-200l-79 150l-121 -150h-200z" />
    <glyph glyph-name="Idieresis" unicode="&#xcf;" horiz-adv-x="381" 
d="M339 127l-252 -23q103 734 170 1378l288 24q-106 -679 -206 -1379zM219 1654q-60 0 -97 43q-30 35 -30 82q0 10 1 21q9 61 58 104t109 43q61 0 98 -43q30 -35 30 -81q0 -11 -2 -23q-8 -60 -57 -103t-110 -43zM629 1654q-60 0 -97 43q-30 35 -30 82q0 10 1 21q9 61 58 104
t109 43q61 0 98 -43q30 -35 30 -81q0 -11 -2 -23q-8 -60 -57 -103t-110 -43z" />
    <glyph glyph-name="Eth" unicode="&#xd0;" horiz-adv-x="875" 
d="M61 88q44 302 89 622h-140l24 170h140q42 310 87 637q117 14 214 14q270 0 383 -108q116 -113 116 -371q0 -81 -11 -176l-10 -72q-48 -342 -134 -488q-96 -161 -297 -214q-117 -31 -251 -31q-100 0 -210 17zM406 880h128l-24 -170h-131q-9 -58 -17 -116
q-16 -115 -29 -227q34 -8 66 -8q88 0 156 61q94 82 134 368l1 4q14 107 14 187q0 134 -41 191q-52 68 -136 68q-27 0 -58 -7z" />
    <glyph glyph-name="Ntilde" unicode="&#xd1;" horiz-adv-x="947" 
d="M63 79q60 342 106 666q52 374 85 725l296 14l165 -753q50 388 89 794l310 4q-132 -613 -220 -1238q-12 -84 -23 -168l-271 -3l-175 806q-50 -446 -92 -829zM383 1669q43 300 243 300q100 0 144 -75q37 -62 76 -62q8 0 16 2q47 15 64 135h150q-43 -300 -243 -300
q-100 0 -149 75q-41 63 -77 63q-7 0 -15 -3q-42 -15 -59 -135h-150z" />
    <glyph glyph-name="Ograve" unicode="&#xd2;" horiz-adv-x="952" 
d="M722 1524q339 0 339 -466q0 -114 -20 -254q-101 -721 -552 -721q-366 0 -366 492q0 114 20 255q98 694 579 694zM417 777q-5 -26 -8 -50q-12 -87 -12 -154q0 -223 135 -223q187 0 247 427q15 109 15 191q0 236 -129 236q-175 0 -248 -427zM701 1600q-109 151 -200 255
l182 130q58 -126 155 -265z" />
    <glyph glyph-name="Oacute" unicode="&#xd3;" horiz-adv-x="952" 
d="M722 1524q339 0 339 -466q0 -114 -20 -254q-101 -721 -552 -721q-366 0 -366 492q0 114 20 255q98 694 579 694zM417 777q-5 -26 -8 -50q-12 -87 -12 -154q0 -223 135 -223q187 0 247 427q15 109 15 191q0 236 -129 236q-175 0 -248 -427zM600 1720q137 139 229 265
l146 -130q-121 -104 -272 -255z" />
    <glyph glyph-name="Ocircumflex" unicode="&#xd4;" horiz-adv-x="952" 
d="M722 1524q339 0 339 -466q0 -114 -20 -254q-101 -721 -552 -721q-366 0 -366 492q0 114 20 255q98 694 579 694zM417 777q-5 -26 -8 -50q-12 -87 -12 -154q0 -223 135 -223q187 0 247 427q15 109 15 191q0 236 -129 236q-175 0 -248 -427zM403 1609l223 300h240l137 -300
h-200l-78 150l-122 -150h-200z" />
    <glyph glyph-name="Otilde" unicode="&#xd5;" horiz-adv-x="952" 
d="M722 1524q339 0 339 -466q0 -114 -20 -254q-101 -721 -552 -721q-366 0 -366 492q0 114 20 255q98 694 579 694zM417 777q-5 -26 -8 -50q-12 -87 -12 -154q0 -223 135 -223q187 0 247 427q15 109 15 191q0 236 -129 236q-175 0 -248 -427zM380 1619q42 300 242 300
q100 0 144 -75q38 -62 77 -62q8 0 15 2q47 15 64 135h150q-42 -300 -242 -300q-100 0 -150 75q-41 63 -77 63q-7 0 -14 -3q-42 -15 -59 -135h-150z" />
    <glyph glyph-name="Odieresis" unicode="&#xd6;" horiz-adv-x="952" 
d="M722 1524q339 0 339 -466q0 -114 -20 -254q-101 -721 -552 -721q-366 0 -366 492q0 114 20 255q98 694 579 694zM417 777q-5 -26 -8 -50q-12 -87 -12 -154q0 -223 135 -223q187 0 247 427q15 109 15 191q0 236 -129 236q-175 0 -248 -427zM499 1614q-60 0 -97 43
q-30 35 -30 80q0 11 2 23q8 61 57 104t109 43q61 0 98 -43q30 -35 30 -83q0 -10 -1 -21q-9 -60 -58 -103t-110 -43zM909 1614q-60 0 -97 43q-30 35 -30 80q0 11 2 23q8 61 57 104t109 43q61 0 98 -43q30 -35 30 -83q0 -10 -1 -21q-9 -60 -58 -103t-110 -43z" />
    <glyph glyph-name="multiply" unicode="&#xd7;" horiz-adv-x="993" 
d="M259 297l-152 177l315 276l-237 276l201 177l238 -276l321 283l153 -177l-323 -283l243 -283l-202 -177l-242 283z" />
    <glyph glyph-name="Oslash" unicode="&#xd8;" horiz-adv-x="952" 
d="M721 1524q64 0 116 -17l72 173l114 -36l-82 -198q120 -113 120 -391q0 -112 -20 -251q-102 -721 -553 -721q-59 0 -108 12l-68 -165l-107 36l73 177q-156 111 -156 432q0 114 20 255q98 694 579 694zM416 777q-5 -26 -8 -51q-13 -88 -13 -156q0 -65 12 -111l303 736
q-21 9 -47 9q-174 0 -247 -427zM778 777q15 109 15 190q0 59 -8 104l-296 -715q19 -6 42 -6q187 0 247 427z" />
    <glyph glyph-name="Ugrave" unicode="&#xd9;" horiz-adv-x="912" 
d="M1077 1516l-139 -989q-65 -457 -483 -457h-22q-311 36 -311 321q0 30 3 62q96 685 138 1080h266q-42 -226 -85 -531q-30 -214 -60 -468q-4 -30 -4 -55q0 -131 111 -131q0 -1 1 -1q131 0 165 238l124 922zM678 1590q-109 151 -200 255l182 130q57 -126 155 -265z" />
    <glyph glyph-name="Uacute" unicode="&#xda;" horiz-adv-x="912" 
d="M1077 1516l-139 -989q-65 -457 -483 -457h-22q-311 36 -311 321q0 30 3 62q96 685 138 1080h266q-42 -226 -85 -531q-30 -214 -60 -468q-4 -30 -4 -55q0 -131 111 -131q0 -1 1 -1q131 0 165 238l124 922zM577 1710q136 139 229 265l146 -130q-121 -104 -272 -255z" />
    <glyph glyph-name="Ucircumflex" unicode="&#xdb;" horiz-adv-x="912" 
d="M1077 1516l-139 -989q-65 -457 -483 -457h-22q-311 36 -311 321q0 30 3 62q96 685 138 1080h266q-42 -226 -85 -531q-30 -214 -60 -468q-4 -30 -4 -55q0 -131 111 -131q0 -1 1 -1q131 0 165 238l124 922zM389 1659l222 300h240l138 -300h-200l-79 150l-121 -150h-200z
" />
    <glyph glyph-name="Udieresis" unicode="&#xdc;" horiz-adv-x="912" 
d="M1077 1516l-139 -989q-65 -457 -483 -457h-22q-311 36 -311 321q0 30 3 62q96 685 138 1080h266q-42 -226 -85 -531q-30 -214 -60 -468q-4 -30 -4 -55q0 -131 111 -131q0 -1 1 -1q131 0 165 238l124 922zM480 1634q-60 0 -97 43q-30 35 -30 80q0 11 2 23q8 61 57 104
t109 43q61 0 98 -43q30 -35 30 -83q0 -10 -1 -21q-9 -60 -58 -103t-110 -43zM890 1634q-60 0 -97 43q-30 35 -30 80q0 11 2 23q8 61 57 104t109 43q61 0 98 -43q30 -35 30 -83q0 -10 -1 -21q-9 -60 -58 -103t-110 -43z" />
    <glyph glyph-name="Yacute" unicode="&#xdd;" horiz-adv-x="835" 
d="M315 75l98 620q-160 482 -242 784l286 29l113 -558q185 402 291 599h273q-330 -603 -475 -873l-83 -589zM561 1710q137 139 230 265l145 -130q-120 -104 -271 -255z" />
    <glyph glyph-name="Thorn" unicode="&#xde;" horiz-adv-x="879" 
d="M67 80q27 185 54 376q70 497 136 1036l255 18l-32 -230q70 19 135 19q117 0 218 -63q117 -73 117 -267q0 -53 -9 -114l-5 -33q-54 -316 -199.5 -404.5t-361.5 -94.5l-27 -237zM458 1040l-62 -489q188 10 237 133q23 56 31 115q5 35 5 70q0 36 -5 72q-15 107 -135 107
q-32 0 -71 -8z" />
    <glyph glyph-name="germandbls" unicode="&#xdf;" horiz-adv-x="891" 
d="M299 89l-247 -4l149 1051q63 373 314 404q68 8 124 8q156 0 231 -62q99 -81 99 -232v-12q-2 -41 -7 -79q-16 -109 -64 -189q-66 -109 -203 -156q142 -22 193 -105q30 -49 30 -129q0 -33 -5 -71q-3 -25 -9 -52q-36 -170 -143.5 -254t-281.5 -115q-51 -9 -102 -14l34 260
q164 3 226 102q35 57 41 103q2 11 2 21q0 32 -17 58q-34 55 -183 55h-26l31 230q122 4 183 110q31 54 38 106q2 16 2 31q0 33 -10 64q-27 88 -120 88h-13q-96 -6 -117 -157q-2 -14 -4 -30z" />
    <glyph glyph-name="agrave" unicode="&#xe0;" horiz-adv-x="796" 
d="M583 1106q287 -16 287 -261q0 -33 -5 -70l-100 -710l-233 -4l5 95q-83 -82 -202 -82q-51 0 -108 16q-144 37 -144 206q0 32 5 68q4 28 12 60q53 237 370 237q61 0 133 -9l16 116q4 26 4 47q0 94 -73 94h-4q-7 1 -13 1q-97 0 -119 -158l-2 -15l-235 20q49 349 385 349h21z
M556 316l24 176q-41 9 -76 9q-91 0 -133 -61q-25 -37 -30 -69q-1 -6 -1 -12q0 -33 23 -59q22 -24 62 -24q51 0 131 40zM558 1162q-108 151 -200 255l183 130q57 -126 154 -265z" />
    <glyph glyph-name="aacute" unicode="&#xe1;" horiz-adv-x="796" 
d="M583 1106q287 -16 287 -261q0 -33 -5 -70l-100 -710l-233 -4l5 95q-83 -82 -202 -82q-51 0 -108 16q-144 37 -144 206q0 32 5 68q4 28 12 60q53 237 370 237q61 0 133 -9l16 116q4 26 4 47q0 94 -73 94h-4q-7 1 -13 1q-97 0 -119 -158l-2 -15l-235 20q49 349 385 349h21z
M556 316l24 176q-41 9 -76 9q-91 0 -133 -61q-25 -37 -30 -69q-1 -6 -1 -12q0 -33 23 -59q22 -24 62 -24q51 0 131 40zM458 1282q137 139 230 265l145 -130q-120 -104 -272 -255z" />
    <glyph glyph-name="acircumflex" unicode="&#xe2;" horiz-adv-x="796" 
d="M583 1106q287 -16 287 -261q0 -33 -5 -70l-100 -710l-233 -4l5 95q-83 -82 -202 -82q-51 0 -108 16q-144 37 -144 206q0 32 5 68q4 28 12 60q53 237 370 237q61 0 133 -9l16 116q4 26 4 47q0 94 -73 94h-4q-7 1 -13 1q-97 0 -119 -158l-2 -15l-235 20q49 349 385 349h21z
M556 316l24 176q-41 9 -76 9q-91 0 -133 -61q-25 -37 -30 -69q-1 -6 -1 -12q0 -33 23 -59q22 -24 62 -24q51 0 131 40zM265 1201l222 300h240l138 -300h-200l-79 150l-121 -150h-200z" />
    <glyph glyph-name="atilde" unicode="&#xe3;" horiz-adv-x="796" 
d="M583 1106q287 -16 287 -261q0 -33 -5 -70l-100 -710l-233 -4l5 95q-83 -82 -202 -82q-51 0 -108 16q-144 37 -144 206q0 32 5 68q4 28 12 60q53 237 370 237q61 0 133 -9l16 116q4 26 4 47q0 94 -73 94h-4q-7 1 -13 1q-97 0 -119 -158l-2 -15l-235 20q49 349 385 349h21z
M556 316l24 176q-41 9 -76 9q-91 0 -133 -61q-25 -37 -30 -69q-1 -6 -1 -12q0 -33 23 -59q22 -24 62 -24q51 0 131 40zM241 1211q43 300 243 300q100 0 144 -75q37 -62 76 -62q8 0 16 2q47 15 64 135h150q-43 -300 -243 -300q-100 0 -149 75q-41 63 -77 63q-7 0 -15 -3
q-42 -15 -59 -135h-150z" />
    <glyph glyph-name="adieresis" unicode="&#xe4;" horiz-adv-x="796" 
d="M583 1106q287 -16 287 -261q0 -33 -5 -70l-100 -710l-233 -4l5 95q-83 -82 -202 -82q-51 0 -108 16q-144 37 -144 206q0 32 5 68q4 28 12 60q53 237 370 237q61 0 133 -9l16 116q4 26 4 47q0 94 -73 94h-4q-7 1 -13 1q-97 0 -119 -158l-2 -15l-235 20q49 349 385 349h21z
M556 316l24 176q-41 9 -76 9q-91 0 -133 -61q-25 -37 -30 -69q-1 -6 -1 -12q0 -33 23 -59q22 -24 62 -24q51 0 131 40zM359 1196q-60 0 -97 43q-30 35 -30 80q0 11 2 23q8 61 57 104t109 43q61 0 98 -43q30 -35 30 -83q0 -10 -1 -21q-9 -60 -58 -103t-110 -43zM769 1196
q-60 0 -97 43q-30 35 -30 80q0 11 2 23q8 61 57 104t109 43q61 0 98 -43q30 -35 30 -83q0 -10 -1 -21q-9 -60 -58 -103t-110 -43z" />
    <glyph glyph-name="aring" unicode="&#xe5;" horiz-adv-x="796" 
d="M583 1106q287 -16 287 -261q0 -33 -5 -70l-100 -710l-233 -4l5 95q-83 -82 -202 -82q-51 0 -108 16q-144 37 -144 206q0 32 5 68q4 28 12 60q53 237 370 237q61 0 133 -9l16 116q4 26 4 47q0 94 -73 94h-4q-7 1 -13 1q-97 0 -119 -158l-2 -15l-235 20q49 349 385 349h21z
M556 316l24 176q-41 9 -76 9q-91 0 -133 -61q-25 -37 -30 -69q-1 -6 -1 -12q0 -33 23 -59q22 -24 62 -24q51 0 131 40zM800 1450q-12 -83 -78.5 -141.5t-149.5 -58.5t-133 59q-41 47 -41 110q0 15 2 31q12 83 78.5 141.5t149.5 58.5t134 -58q40 -48 40 -111q0 -15 -2 -31z
M612 1533q-34 0 -61.5 -24.5t-32.5 -58.5q-1 -7 -1 -13q0 -26 17 -45q20 -24 54 -24t62 24t33 58q1 7 1 13q0 26 -17 46q-21 24 -55 24z" />
    <glyph glyph-name="ae" unicode="&#xe6;" horiz-adv-x="1220" 
d="M572 1106q158 -10 219 -103q88 74 212 74q293 0 293 -329q0 -60 -10 -132q-8 -56 -22 -120h-447q-10 -69 -10 -119q0 -138 73 -138h7q88 7 105 133q4 27 5 60l238 5q-53 -381 -388 -387h-6q-146 0 -211 101q-151 -73 -283 -73q-52 0 -101 11q-172 39 -172 219q0 30 5 63
q4 25 11 53q53 237 370 237q61 0 133 -9l16 116q4 26 4 47q0 94 -73 94h-4q-7 1 -13 1q-97 0 -119 -158l-2 -15l-236 20q49 349 385 349h21zM570 492q-42 9 -77 9q-91 0 -132 -61q-25 -37 -30 -69q-1 -6 -1 -12q0 -33 23 -59q22 -24 62 -24q51 0 130 40zM1045 680l3 24
q5 37 5 66q0 116 -82 116q-111 0 -152 -206h226z" />
    <glyph glyph-name="ccedilla" unicode="&#xe7;" horiz-adv-x="730" 
d="M749 447q-46 -331 -332 -363h8l-21 -89q29 21 62 21q18 0 37 -6q54 -17 73 -79q7 -26 7 -53q0 -14 -2 -29q-3 -25 -13 -51q-26 -70 -101 -106q-48 -23 -126 -23q-45 0 -101 8l7 119q55 -6 94 -6q63 0 85 15q23 16 26 37q1 4 1 8q0 6 -2 12q-8 27 -38 27q-7 0 -14 -1
q-42 -7 -58 -45l-88 9q32 156 50 232q-207 32 -207 324q0 69 12 153l5 30q82 516 411 521h8q260 0 260 -256q0 -42 -7 -90l-6 -40l-218 -16l4 24q5 36 5 64q0 118 -83 118q-105 0 -146 -295l-5 -33q-11 -90 -11 -154q0 -165 72 -165h6q88 7 106 133q4 27 5 60z" />
    <glyph glyph-name="egrave" unicode="&#xe8;" 
d="M516 1077q293 0 293 -329q0 -60 -10 -132q-8 -56 -22 -120h-447q-10 -69 -10 -119q0 -138 73 -138h7q88 7 105 133q4 27 5 60l238 5q-53 -381 -387 -386q-4 -1 -7 -1q-261 0 -261 326q0 70 12 155l4 30q82 516 407 516zM332 680h226l3 24q5 36 5 64q0 118 -83 118
q-111 0 -151 -206zM532 1152q-109 151 -200 255l182 130q57 -126 155 -265z" />
    <glyph glyph-name="eacute" unicode="&#xe9;" 
d="M516 1077q293 0 293 -329q0 -60 -10 -132q-8 -56 -22 -120h-447q-10 -69 -10 -119q0 -138 73 -138h7q88 7 105 133q4 27 5 60l238 5q-53 -381 -387 -386q-4 -1 -7 -1q-261 0 -261 326q0 70 12 155l4 30q82 516 407 516zM332 680h226l3 24q5 36 5 64q0 118 -83 118
q-111 0 -151 -206zM431 1272q136 139 229 265l146 -130q-121 -104 -272 -255z" />
    <glyph glyph-name="ecircumflex" unicode="&#xea;" 
d="M516 1077q293 0 293 -329q0 -60 -10 -132q-8 -56 -22 -120h-447q-10 -69 -10 -119q0 -138 73 -138h7q88 7 105 133q4 27 5 60l238 5q-53 -381 -387 -386q-4 -1 -7 -1q-261 0 -261 326q0 70 12 155l4 30q82 516 407 516zM332 680h226l3 24q5 36 5 64q0 118 -83 118
q-111 0 -151 -206zM240 1201l222 300h240l138 -300h-200l-79 150l-121 -150h-200z" />
    <glyph glyph-name="edieresis" unicode="&#xeb;" 
d="M516 1077q293 0 293 -329q0 -60 -10 -132q-8 -56 -22 -120h-447q-10 -69 -10 -119q0 -138 73 -138h7q88 7 105 133q4 27 5 60l238 5q-53 -381 -387 -386q-4 -1 -7 -1q-261 0 -261 326q0 70 12 155l4 30q82 516 407 516zM332 680h226l3 24q5 36 5 64q0 118 -83 118
q-111 0 -151 -206zM334 1196q-60 0 -97 43q-30 35 -30 80q0 11 2 23q8 61 57 104t109 43q61 0 98 -43q30 -35 30 -83q0 -10 -1 -21q-9 -60 -58 -103t-110 -43zM744 1196q-60 0 -97 43q-30 35 -30 80q0 11 2 23q8 61 57 104t109 43q61 0 98 -43q30 -35 30 -83q0 -10 -1 -21
q-9 -60 -58 -103t-110 -43z" />
    <glyph glyph-name="igrave" unicode="&#xec;" horiz-adv-x="335" 
d="M58 45q75 585 135 1011l254 15q-69 -408 -126 -811q-15 -108 -29 -215h-234zM333 1152q-109 151 -201 255l183 130q57 -126 154 -265z" />
    <glyph glyph-name="iacute" unicode="&#xed;" horiz-adv-x="335" 
d="M58 45q75 585 135 1011l254 15q-69 -408 -126 -811q-15 -108 -29 -215h-234zM230 1272q137 139 230 265l145 -130q-120 -104 -271 -255z" />
    <glyph glyph-name="icircumflex" unicode="&#xee;" horiz-adv-x="335" 
d="M59 45q75 585 135 1011l254 15q-70 -408 -126 -811q-15 -108 -29 -215h-234zM41 1201l222 300h240l138 -300h-200l-79 150l-121 -150h-200z" />
    <glyph glyph-name="idieresis" unicode="&#xef;" horiz-adv-x="335" 
d="M59 45q75 585 135 1011l254 15q-69 -408 -126 -811q-15 -108 -29 -215h-234zM135 1196q-60 0 -97 43q-30 35 -30 82q0 10 1 21q9 61 58 104t109 43q61 0 98 -43q30 -35 30 -81q0 -11 -2 -23q-8 -60 -57 -103t-110 -43zM545 1196q-60 0 -97 43q-30 35 -30 82q0 10 1 21
q9 61 58 104t109 43q61 0 98 -43q30 -35 30 -81q0 -11 -2 -23q-8 -60 -57 -103t-110 -43z" />
    <glyph glyph-name="eth" unicode="&#xf0;" horiz-adv-x="835" 
d="M1002 1465q-13 -77 -25 -155h117l-24 -170h-119q-25 -170 -50 -347q-50 -355 -99 -741l-237 -1l14 153q-90 -111 -213 -111q-253 0 -253 318q0 69 12 152q1 10 4 20q72 471 370 471q12 0 25 -1q101 -6 149 -111q13 92 26 198h-129l24 170h125q8 74 17 155h266zM647 755
q-47 79 -108 79q-25 0 -52 -13q-84 -41 -111 -230q-3 -22 -5 -45q-5 -46 -5 -84q0 -148 73 -158q9 -1 18 -1q80 0 146 106z" />
    <glyph glyph-name="ntilde" unicode="&#xf1;" horiz-adv-x="786" 
d="M379 1103l-13 -163q60 130 240 132h4q176 0 220 -138q12 -36 12 -111q0 -117 -30 -329q-23 -170 -67 -402h-242q56 309 80 479q12 85 16 136q1 17 1 32q0 118 -76 118q-86 0 -119 -80l-92 -725l-235 -2q65 460 114 1033zM236 1211q42 300 242 300q100 0 145 -75
q37 -62 76 -62q8 0 15 2q47 15 64 135h150q-42 -300 -242 -300q-100 0 -149 75q-41 63 -77 63q-7 0 -15 -3q-42 -15 -59 -135h-150z" />
    <glyph glyph-name="ograve" unicode="&#xf2;" 
d="M543 1077q285 0 285 -331q0 -64 -11 -141l-6 -38q-86 -511 -435 -516q-4 -1 -8 -1q-275 0 -275 332q0 69 12 151l4 28q82 516 434 516zM478 849q-66 -22 -109 -163q-25 -84 -37 -169q-8 -57 -11 -115v-12q0 -132 83 -137h7q81 0 126 107q37 89 54 211q4 30 8 61
q4 47 4 84q0 89 -24 117q-22 24 -57 24q-20 0 -44 -8zM541 1152q-109 151 -200 255l182 130q57 -126 155 -265z" />
    <glyph glyph-name="oacute" unicode="&#xf3;" 
d="M543 1077q285 0 285 -331q0 -64 -11 -141l-6 -38q-86 -511 -435 -516q-4 -1 -8 -1q-275 0 -275 332q0 69 12 151l4 28q82 516 434 516zM478 849q-66 -22 -109 -163q-25 -84 -37 -169q-8 -57 -11 -115v-12q0 -132 83 -137h7q81 0 126 107q37 89 54 211q4 30 8 61
q4 47 4 84q0 89 -24 117q-22 24 -57 24q-20 0 -44 -8zM441 1272q136 139 229 265l146 -130q-121 -104 -272 -255z" />
    <glyph glyph-name="ocircumflex" unicode="&#xf4;" 
d="M543 1077q285 0 285 -331q0 -64 -11 -141l-6 -38q-86 -511 -435 -516q-4 -1 -8 -1q-275 0 -275 332q0 69 12 151l4 28q82 516 434 516zM478 849q-66 -22 -109 -163q-25 -84 -37 -169q-8 -57 -11 -115v-12q0 -132 83 -137h7q81 0 126 107q37 89 54 211q4 30 8 61
q4 47 4 84q0 89 -24 117q-22 24 -57 24q-20 0 -44 -8zM250 1201l222 300h240l138 -300h-200l-79 150l-121 -150h-200z" />
    <glyph glyph-name="otilde" unicode="&#xf5;" 
d="M543 1077q285 0 285 -331q0 -64 -11 -141l-6 -38q-86 -511 -435 -516q-4 -1 -8 -1q-275 0 -275 332q0 69 12 151l4 28q82 516 434 516zM478 849q-66 -22 -109 -163q-25 -84 -37 -169q-8 -57 -11 -115v-12q0 -132 83 -137h7q81 0 126 107q37 89 54 211q4 30 8 61
q4 47 4 84q0 89 -24 117q-22 24 -57 24q-20 0 -44 -8zM226 1211q42 300 242 300q100 0 145 -75q37 -62 76 -62q8 0 15 2q47 15 64 135h150q-42 -300 -242 -300q-100 0 -149 75q-41 63 -77 63q-7 0 -15 -3q-42 -15 -59 -135h-150z" />
    <glyph glyph-name="odieresis" unicode="&#xf6;" 
d="M543 1077q285 0 285 -331q0 -64 -11 -141l-6 -38q-86 -511 -435 -516q-4 -1 -8 -1q-275 0 -275 332q0 69 12 151l4 28q82 516 434 516zM478 849q-66 -22 -109 -163q-25 -84 -37 -169q-8 -57 -11 -115v-12q0 -132 83 -137h7q81 0 126 107q37 89 54 211q4 30 8 61
q4 47 4 84q0 89 -24 117q-22 24 -57 24q-20 0 -44 -8zM344 1196q-60 0 -97 43q-30 35 -30 80q0 11 2 23q8 61 57 104t109 43q61 0 98 -43q30 -35 30 -83q0 -10 -1 -21q-9 -60 -58 -103t-110 -43zM754 1196q-60 0 -97 43q-30 35 -30 80q0 11 2 23q8 61 57 104t109 43
q61 0 98 -43q30 -35 30 -83q0 -10 -1 -21q-9 -60 -58 -103t-110 -43z" />
    <glyph glyph-name="divide" unicode="&#xf7;" horiz-adv-x="980" 
d="M1062 870l-35 -250h-900l35 250h900zM520 215q-60 0 -97 43q-30 35 -30 80q0 11 2 23q8 61 57 104t109 43q61 0 98 -43q30 -35 30 -83q0 -10 -1 -21q-9 -60 -58 -103t-110 -43zM627 976q-60 0 -97 43q-30 35 -30 80q0 11 2 23q8 61 57 104t109 43q61 0 98 -43
q30 -35 30 -83q0 -10 -1 -21q-9 -60 -58 -103t-110 -43z" />
    <glyph glyph-name="oslash" unicode="&#xf8;" 
d="M543 1077q21 0 41 -2l49 135l114 -36l-49 -133q129 -73 129 -295q0 -65 -11 -143q-2 -18 -6 -37q-86 -510 -435 -516q-21 0 -42 1l-56 -151l-106 36l52 146q-130 71 -130 300q0 67 11 149l4 30q83 516 435 516zM597 632q5 51 5 89q0 30 -3 53l-192 -521h3q82 0 126 106
q38 89 54 209q5 31 7 64zM478 849q-66 -22 -109 -163q-26 -84 -38 -169q-8 -58 -10 -116v-17q0 -16 1 -30l182 501q-12 -1 -26 -6z" />
    <glyph glyph-name="ugrave" unicode="&#xf9;" horiz-adv-x="786" 
d="M566 50l13 163q-60 -130 -244 -131q-2 -1 -3 -1q-182 0 -218 164q-9 37 -9 102q0 124 32 349q25 176 69 415h243q-67 -336 -92 -517q-13 -91 -15 -142q-1 -12 -1 -23q0 -133 80 -133q86 0 119 81l88 694l235 2q-60 -430 -110 -1002zM556 1181q-109 151 -200 255l182 130
q58 -126 155 -265z" />
    <glyph glyph-name="uacute" unicode="&#xfa;" horiz-adv-x="786" 
d="M566 50l13 163q-60 -130 -244 -131q-2 -1 -3 -1q-182 0 -218 164q-9 37 -9 102q0 124 32 349q25 176 69 415h243q-67 -336 -92 -517q-13 -91 -15 -142q-1 -12 -1 -23q0 -133 80 -133q86 0 119 81l88 694l235 2q-60 -430 -110 -1002zM456 1301q137 139 229 265l146 -130
q-121 -104 -272 -255z" />
    <glyph glyph-name="ucircumflex" unicode="&#xfb;" horiz-adv-x="786" 
d="M566 50l13 163q-60 -130 -244 -131q-2 -1 -3 -1q-182 0 -218 164q-9 37 -9 102q0 124 32 349q25 176 69 415h243q-67 -336 -92 -517q-13 -91 -15 -142q-1 -12 -1 -23q0 -133 80 -133q86 0 119 81l88 694l235 2q-60 -430 -110 -1002zM267 1250l222 300h240l138 -300h-200
l-79 150l-121 -150h-200z" />
    <glyph glyph-name="udieresis" unicode="&#xfc;" horiz-adv-x="786" 
d="M566 50l13 163q-60 -130 -244 -131q-2 -1 -3 -1q-182 0 -218 164q-9 37 -9 102q0 124 32 349q25 176 69 415h243q-67 -336 -92 -517q-13 -91 -15 -142q-1 -12 -1 -23q0 -133 80 -133q86 0 119 81l88 694l235 2q-60 -430 -110 -1002zM357 1216q-60 0 -97 43q-30 35 -30 80
q0 11 2 23q8 61 57 104t109 43q61 0 98 -43q30 -35 30 -83q0 -10 -1 -21q-9 -60 -58 -103t-110 -43zM767 1216q-60 0 -97 43q-30 35 -30 80q0 11 2 23q8 61 57 104t109 43q61 0 98 -43q30 -35 30 -83q0 -10 -1 -21q-9 -60 -58 -103t-110 -43z" />
    <glyph glyph-name="yacute" unicode="&#xfd;" horiz-adv-x="803" 
d="M190 1081l265 21q-52 -300 -79 -494q-10 -73 -16 -131q-6 -48 -6 -85q0 -130 71 -135q6 -1 11 -1q82 0 117 94q20 55 49 261q23 165 51 426l249 18q-39 -305 -70 -524q-38 -273 -64 -412q-45 -250 -196 -380q-137 -118 -354 -118q-25 0 -50 2l6 244q19 -1 37 -1
q168 0 238 59q73 61 92 196l2 16q-70 -90 -188 -90h-14q-128 6 -185 102q-45 73 -45 191q0 36 5 77q17 172 74 664zM462 1301q136 139 229 265l146 -130q-121 -104 -272 -255z" />
    <glyph glyph-name="thorn" unicode="&#xfe;" horiz-adv-x="835" 
d="M-3 -349q53 337 123 832q63 451 140 1031l243 1l-79 -574q90 112 213 112q251 0 251 -325q0 -72 -12 -160l-3 -20q-75 -486 -374 -486q-12 0 -24 1q-101 5 -149 111q-32 -222 -63 -523h-266zM399 736l-47 -376q47 -79 106 -79q24 0 50 14q78 40 106 239q3 24 6 50
q5 54 5 96q0 151 -66 161q-9 1 -17 1q-76 0 -143 -106z" />
    <glyph glyph-name="ydieresis" unicode="&#xff;" horiz-adv-x="803" 
d="M190 1081l265 21q-52 -300 -79 -494q-10 -73 -16 -131q-6 -48 -6 -85q0 -130 71 -135q6 -1 11 -1q82 0 117 94q20 55 49 261q23 165 51 426l249 18q-39 -305 -70 -524q-38 -273 -64 -412q-45 -250 -196 -380q-137 -118 -354 -118q-25 0 -50 2l6 244q19 -1 37 -1
q168 0 238 59q73 61 92 196l2 16q-70 -90 -188 -90h-14q-128 6 -185 102q-45 73 -45 191q0 36 5 77q17 172 74 664zM363 1216q-60 0 -97 43q-30 35 -30 82q0 10 1 21q9 61 58 104t109 43q61 0 98 -43q30 -35 30 -81q0 -11 -2 -23q-8 -60 -57 -103t-110 -43zM773 1216
q-60 0 -97 43q-30 35 -30 82q0 10 1 21q9 61 58 104t109 43q61 0 98 -43q30 -35 30 -81q0 -11 -2 -23q-8 -60 -57 -103t-110 -43z" />
    <glyph glyph-name="Ccaron" unicode="&#x10c;" horiz-adv-x="885" 
d="M953 978l-222 -1l4 27q7 47 7 85q0 150 -106 150q-141 0 -202 -434q-22 -155 -22 -261q0 -228 101 -228h1q148 1 182 240l14 99h248l-11 -75q-70 -498 -482 -521q-12 -1 -24 -1q-303 0 -303 459q0 124 22 281q102 724 498 724q315 0 315 -346q0 -63 -10 -138
q-4 -29 -10 -60zM993 1959l-222 -300h-240l-138 300h200l79 -150l121 150h200z" />
    <glyph glyph-name="ccaron" unicode="&#x10d;" horiz-adv-x="730" 
d="M514 462l236 -15q-51 -361 -385 -366q-4 -1 -7 -1q-261 0 -261 326q0 70 12 155l4 30q82 516 411 521h8q260 0 260 -256q0 -42 -7 -90q-2 -20 -6 -40l-217 -16l3 24q5 36 5 64q0 118 -83 118q-105 0 -146 -295l-5 -33q-10 -88 -10 -152q0 -167 72 -167h6q88 7 105 133
q4 27 5 60zM876 1550l-222 -300h-240l-138 300h200l79 -150l121 150h200z" />
    <glyph glyph-name="Ecaron" unicode="&#x11a;" horiz-adv-x="798" 
d="M892 1490l-39 -282l-393 16l-46 -328l356 10l-29 -271h-317l-35 -254h415l-40 -284l-691 10q50 281 91 566q55 395 91 797q227 9 637 20zM993 1959l-222 -300h-240l-138 300h200l79 -150l121 150h200z" />
    <glyph glyph-name="ecaron" unicode="&#x11b;" 
d="M516 1077q293 0 293 -329q0 -60 -10 -132q-8 -56 -22 -120h-447q-10 -69 -10 -119q0 -138 73 -138h7q88 7 105 133q4 27 5 60l238 5q-53 -381 -387 -386q-4 -1 -7 -1q-261 0 -261 326q0 70 12 155l4 30q82 516 407 516zM332 680h226l3 24q5 36 5 64q0 118 -83 118
q-111 0 -151 -206zM889 1550l-222 -300h-240l-138 300h200l79 -150l121 150h200z" />
    <glyph glyph-name="dotlessi" unicode="&#x131;" horiz-adv-x="335" 
d="M58 45q75 585 135 1011l254 15q-69 -408 -126 -811q-15 -108 -29 -215h-234z" />
    <glyph glyph-name="Ncaron" unicode="&#x147;" horiz-adv-x="947" 
d="M63 79q60 342 106 666q52 374 85 725l296 14l165 -753q50 388 89 794l310 4q-132 -613 -220 -1238q-12 -84 -23 -168l-271 -3l-175 806q-50 -446 -92 -829zM993 1959l-222 -300h-240l-138 300h200l79 -150l121 150h200z" />
    <glyph glyph-name="ncaron" unicode="&#x148;" horiz-adv-x="786" 
d="M379 1103l-13 -163q60 130 240 132h4q176 0 220 -138q12 -36 12 -111q0 -117 -30 -329q-23 -170 -67 -402h-242q56 309 80 479q12 85 16 136q1 17 1 32q0 118 -76 118q-86 0 -119 -80l-92 -725l-235 -2q65 460 114 1033zM909 1550l-222 -300h-240l-138 300h200l79 -150
l121 150h200z" />
    <glyph glyph-name="OE" unicode="&#x152;" horiz-adv-x="1451" 
d="M662 1524q192 0 232 -259q10 102 20 205q227 9 638 20l-40 -282l-393 16l-46 -328l357 10l-29 -271h-317l-36 -254h415l-40 -284l-691 10q25 139 48 280q-123 -304 -351 -304q-299 0 -299 459q0 127 23 288q98 694 509 694zM427 777q-5 -26 -8 -50q-12 -87 -12 -154
q0 -223 135 -223q187 0 247 427q15 109 15 191q0 236 -129 236q-175 0 -248 -427z" />
    <glyph glyph-name="oe" unicode="&#x153;" horiz-adv-x="1238" 
d="M498 1077q169 0 220 -155q105 155 283 155q293 0 293 -329q0 -60 -10 -132q-8 -56 -22 -120h-447q-10 -69 -10 -119q0 -138 73 -138h7q88 7 105 133q4 27 5 60l238 5q-53 -381 -388 -387h-7q-183 0 -237 161q-102 -158 -271 -161h-6q-233 0 -233 315q0 73 13 164l5 32
q82 516 389 516zM478 849q-66 -22 -109 -163q-25 -84 -37 -169q-8 -57 -11 -115v-12q0 -132 83 -137h7q81 0 126 107q37 89 54 211q4 30 8 61q4 47 4 84q0 89 -24 117q-22 24 -57 24q-20 0 -44 -8zM1043 680l3 24q5 36 5 64q0 118 -83 118q-111 0 -151 -206h226z" />
    <glyph glyph-name="Rcaron" unicode="&#x158;" horiz-adv-x="895" 
d="M65 64q46 286 87 576q62 444 112 897q157 16 280 16q342 0 419 -125q55 -91 55 -197q0 -30 -4 -61q-9 -64 -35 -132q-89 -220 -283 -279q127 -18 177 -140q20 -49 20 -160q0 -156 -39 -434l-7 -43l-302 -4q23 126 37 226q22 157 22 251q0 87 -19 120q-46 76 -123 76
q-15 0 -31 -3q-37 -305 -55 -578zM495 1304l-53 -428q187 9 254 126q36 62 44 121q2 18 2 35q0 33 -8 65q-24 85 -167 85q-33 0 -72 -4zM993 1959l-222 -300h-240l-138 300h200l79 -150l121 150h200z" />
    <glyph glyph-name="rcaron" unicode="&#x159;" horiz-adv-x="759" 
d="M414 767l-92 -725l-245 -2q65 460 114 1033l187 20l-13 -163q59 120 215 137q24 2 45 2q121 0 173 -79q40 -64 40 -179q0 -54 -9 -120l-225 -22q4 17 6 33q5 35 5 62q0 98 -65 98h-4q-97 -5 -132 -95zM904 1550l-222 -300h-240l-138 300h200l79 -150l121 150h200z" />
    <glyph glyph-name="Scaron" unicode="&#x160;" horiz-adv-x="909" 
d="M137 609l300 20q-14 -62 -22 -112q-7 -49 -7 -87q0 -140 89 -140h4q137 4 157 146l1 9q1 10 1 20q0 141 -218 276q-189 117 -189 360q0 49 7 102q1 10 4 20q54 337 426 343h8q284 0 284 -307q0 -55 -9 -120q-5 -34 -12 -72l-263 -15q10 45 15 83q6 41 6 73q0 106 -67 106
q-105 0 -131 -107q-3 -15 -5 -30q-3 -20 -3 -39q0 -67 33 -127q48 -89 186.5 -163t178.5 -203q20 -63 20 -131q0 -33 -5 -67q-6 -40 -18 -82q-44 -151 -163 -250.5t-297 -108.5q-12 -1 -24 -1q-161 0 -253 118q-60 76 -60 238q0 77 14 173q5 36 12 75zM1032 1959l-222 -300
h-240l-138 300h200l79 -150l121 150h200z" />
    <glyph glyph-name="scaron" unicode="&#x161;" horiz-adv-x="710" 
d="M85 405l231 11l-2 -13q-4 -29 -4 -53q0 -101 77 -103h4q92 0 105 89l1 7v10q0 91 -160 148q-169 60 -185 202q-3 23 -3 45q0 26 4 51q12 84 65 156q81 110 217 126q37 4 71 4q89 0 153 -31q86 -43 111 -123q11 -35 11 -74q0 -23 -4 -48q-4 -32 -14 -66l-215 -5
q7 25 10 46q3 18 3 33q0 68 -52 74q-7 1 -14 1q-66 0 -99 -67q-11 -23 -14 -42q-1 -6 -1 -12q0 -40 34 -69q55 -48 169.5 -97.5t140.5 -168.5q5 -26 5 -52q0 -19 -3 -38q-11 -76 -65 -153q-88 -123 -238 -143q-32 -5 -63 -5q-110 0 -196 57t-86 212q0 42 6 91zM864 1501
l-222 -300h-240l-138 300h200l79 -150l121 150h200z" />
    <glyph glyph-name="Tcaron" unicode="&#x164;" horiz-adv-x="835" 
d="M221 1232l37 263q146 -4 290 -4q224 0 441 9l-31 -280h-252q-100 -711 -143 -1128l-284 -14q122 710 195 1158zM993 1959l-222 -300h-240l-138 300h200l79 -150l121 150h200z" />
    <glyph glyph-name="tcaron" unicode="&#x165;" horiz-adv-x="1042" 
d="M403 1396l230 15l-47 -331l192 5l-24 -189l-195 -9l-64 -455q-3 -22 -3 -41q0 -118 116 -118q28 0 62 7l-40 -220q-49 -6 -92 -6q-280 0 -280 257q0 32 4 69l68 489l-165 -10l27 223l168 -2zM872 1221q115 32 146 123q-73 26 -92 62q-14 27 -14 60q0 10 1 21
q7 45 30.5 79.5t61.5 52.5t73 19h2q33 0 63 -12q29 -13 45 -39t20 -55q1 -14 1 -31q0 -18 -2 -40l-1 -4q-6 -40 -23 -88q-18 -51 -51.5 -97t-91 -87.5t-160.5 -49.5z" />
    <glyph glyph-name="Uring" unicode="&#x16e;" horiz-adv-x="912" 
d="M1077 1516l-139 -989q-65 -457 -483 -457h-22q-311 36 -311 321q0 30 3 62q96 685 138 1080h266q-42 -226 -85 -531q-30 -214 -60 -468q-4 -30 -4 -55q0 -131 111 -131q0 -1 1 -1q131 0 165 238l124 922zM884 1809q-12 -83 -78.5 -141.5t-149.5 -58.5t-133 59
q-41 47 -41 110q0 15 2 31q11 83 78 141.5t150 58.5t133 -58q41 -48 41 -113q0 -14 -2 -29zM695 1892q-34 0 -61 -24.5t-32 -58.5q-1 -7 -1 -13q0 -26 17 -45q20 -24 54 -24t62 24t33 58q1 6 1 13q0 26 -17 46q-22 24 -56 24z" />
    <glyph glyph-name="uring" unicode="&#x16f;" horiz-adv-x="786" 
d="M566 50l13 163q-60 -130 -244 -131q-2 -1 -3 -1q-182 0 -218 164q-9 37 -9 102q0 124 32 349q25 176 69 415h243q-67 -336 -92 -517q-13 -91 -15 -142q-1 -12 -1 -23q0 -133 80 -133q86 0 119 81l88 694l235 2q-60 -430 -110 -1002zM788 1400q-12 -83 -78.5 -141.5
t-149.5 -58.5t-133 59q-41 47 -41 110q0 15 2 31q12 83 78.5 141.5t149.5 58.5t134 -58q40 -48 40 -111q0 -15 -2 -31zM600 1483q-34 0 -61.5 -24.5t-32.5 -58.5q-1 -7 -1 -13q0 -26 17 -45q20 -24 54 -24t62 24t33 58q1 7 1 13q0 26 -17 46q-21 24 -55 24z" />
    <glyph glyph-name="Ydieresis" unicode="&#x178;" horiz-adv-x="835" 
d="M315 75l98 620q-160 482 -242 784l286 29l113 -558q185 402 291 599h273q-330 -603 -475 -873l-83 -589zM467 1654q-60 0 -97 43q-30 35 -30 82q0 10 1 21q9 61 58 104t109 43q61 0 98 -43q30 -35 30 -81q0 -11 -2 -23q-8 -60 -57 -103t-110 -43zM877 1654q-60 0 -97 43
q-30 35 -30 82q0 10 1 21q9 61 58 104t109 43q61 0 98 -43q30 -35 30 -81q0 -11 -2 -23q-8 -60 -57 -103t-110 -43z" />
    <glyph glyph-name="Zcaron" unicode="&#x17d;" horiz-adv-x="826" 
d="M237 1252l50 260q474 6 686 6l-37 -263q-336 -513 -552 -858q115 -3 219 -3q121 0 227 4l-30 -279q-263 11 -710 11l20 292q361 502 551 832zM993 1959l-222 -300h-240l-138 300h200l79 -150l121 150h200z" />
    <glyph glyph-name="zcaron" unicode="&#x17e;" horiz-adv-x="685" 
d="M197 1082q87 -2 196 -2q175 0 406 5l-23 -204l-441 -600h356l-34 -219q-251 0 -612 -10l19 194l463 635q-179 0 -355 -13zM853 1501l-223 -300h-240l-137 300h200l79 -150l121 150h200z" />
    <glyph glyph-name="florin" unicode="&#x192;" horiz-adv-x="699" 
d="M549 842q-39 -302 -66 -491q-26 -188 -40 -262q-49 -280 -171 -380q-107 -88 -289 -88q-27 0 -56 2l8 254q41 -7 75 -7q95 0 138 55q58 73 90 305l2 10q36 343 61 522l9 65l-163 -8l26 215l159 7q2 27 6 55q13 94 46 193q41 129 169 206q95 58 228 58q44 0 93 -7
l-33 -219q-29 4 -55 4q-83 0 -128 -41q-49 -43 -66 -168q-5 -30 -7 -66l215 3l-29 -203z" />
    <glyph glyph-name="circumflex" unicode="&#x2c6;" horiz-adv-x="690" 
d="M226 1250l222 300h240l138 -300h-200l-79 150l-121 -150h-200z" />
    <glyph glyph-name="caron" unicode="&#x2c7;" horiz-adv-x="690" 
d="M868 1550l-222 -300h-240l-138 300h200l79 -150l121 150h200z" />
    <glyph glyph-name="breve" unicode="&#x2d8;" horiz-adv-x="690" 
d="M268 1550h180q-2 -15 -2 -28q0 -92 105 -92q120 0 137 120h180q-42 -300 -342 -300q-263 0 -263 231q0 32 5 69z" />
    <glyph glyph-name="dotaccent" unicode="&#x2d9;" horiz-adv-x="368" 
d="M361 1245q-60 0 -97 43q-30 35 -30 82q0 10 1 21q9 61 58 104t109 43q61 0 98 -43q30 -35 30 -81q0 -11 -2 -23q-8 -60 -57 -103t-110 -43z" />
    <glyph glyph-name="ring" unicode="&#x2da;" horiz-adv-x="490" 
d="M647 1400q-12 -83 -78.5 -141.5t-149.5 -58.5t-133 59q-41 47 -41 110q0 15 2 31q11 83 78 141.5t150 58.5t133 -58q41 -48 41 -113q0 -14 -2 -29zM458 1483q-34 0 -61.5 -24.5t-31.5 -58.5q-1 -7 -1 -13q0 -26 17 -45q20 -24 54 -24t62 24t33 58q1 5 1 11q0 27 -18 48
q-21 24 -55 24z" />
    <glyph glyph-name="ogonek" unicode="&#x2db;" horiz-adv-x="460" 
d="M250 0q-84 -100 -95 -180q-2 -14 -2 -26q0 -64 59 -64q70 0 136 40l24 -110q-78 -60 -178 -60q-176 0 -176 147q0 20 3 43q15 110 129 210h100z" />
    <glyph glyph-name="tilde" unicode="&#x2dc;" horiz-adv-x="740" 
d="M227 1260q42 300 242 300q100 0 145 -75q37 -62 76 -62q8 0 15 2q47 15 64 135h150q-42 -300 -242 -300q-100 0 -149 75q-42 63 -78 63q-7 0 -14 -3q-42 -15 -59 -135h-150z" />
    <glyph glyph-name="hungarumlaut" unicode="&#x2dd;" horiz-adv-x="728" 
d="M201 1301q137 139 229 265l146 -130q-121 -104 -272 -255zM521 1301q137 139 229 265l146 -130q-121 -104 -272 -255z" />
    <glyph glyph-name="endash" unicode="&#x2013;" horiz-adv-x="580" 
d="M662 870l-35 -250h-500l35 250h500z" />
    <glyph glyph-name="emdash" unicode="&#x2014;" horiz-adv-x="772" 
d="M862 870l-35 -250h-700l35 250h700z" />
    <glyph glyph-name="quoteleft" unicode="&#x2018;" horiz-adv-x="381" 
d="M480 1135q-101 8 -146.5 49.5t-66 87.5t-24.5 97q-2 19 -2 37q0 27 4 51q0 2 1 4q6 41 18 70.5t35.5 55.5t56.5 39q32 12 65 12h3q34 -1 67 -19t47 -52q10 -25 10 -54q0 -13 -2 -26q-6 -45 -35.5 -81t-109.5 -62q5 -91 111 -123z" />
    <glyph glyph-name="quoteright" unicode="&#x2019;" horiz-adv-x="381" 
d="M212 1221q115 32 146 123q-73 26 -92 62q-14 27 -14 60q0 10 1 21q7 45 30.5 79.5t61.5 52.5t74 19h2q33 0 62 -12q29 -13 45 -39t20 -55q1 -14 1 -31q0 -18 -2 -40l-1 -4q-5 -40 -23 -88q-18 -51 -51.5 -97t-91 -87.5t-160.5 -49.5z" />
    <glyph glyph-name="quotesinglbase" unicode="&#x201a;" horiz-adv-x="381" 
d="M29 -79q115 32 146 123q-73 26 -92 62q-14 27 -14 60q0 10 1 21q7 45 30.5 79.5t61.5 52.5t74 19h2q33 0 62 -12q29 -13 45 -39t20 -55q1 -14 1 -31q0 -18 -2 -40l-1 -4q-5 -40 -23 -88q-18 -51 -51.5 -97t-91 -87.5t-160.5 -49.5z" />
    <glyph glyph-name="quotedblleft" unicode="&#x201c;" horiz-adv-x="713" 
d="M820 1135q-100 8 -146 49.5t-66.5 87.5t-24.5 97q-2 19 -2 37q0 27 4 51q0 2 1 4q6 41 18 70.5t35.5 55.5t56.5 39q32 12 65 12h3q34 -1 67 -19t47 -52q10 -25 10 -54q0 -13 -2 -26q-6 -45 -35.5 -81t-109.5 -62q5 -91 111 -123zM473 1085q-101 8 -146.5 49.5t-66 87.5
t-24.5 97q-2 19 -2 37q0 27 4 51q0 2 1 4q6 41 18 70.5t35.5 55.5t56.5 39q32 12 65 12h3q34 -1 67 -19t47 -52q10 -25 10 -54q0 -13 -2 -26q-6 -45 -35.5 -81t-109.5 -62q5 -91 111 -123z" />
    <glyph glyph-name="quotedblright" unicode="&#x201d;" horiz-adv-x="713" 
d="M212 1221q115 32 146 123q-73 26 -92 62q-14 27 -14 60q0 10 1 21q7 45 30.5 79.5t61.5 52.5t74 19h2q33 0 62 -12q29 -13 45 -39t20 -55q1 -14 1 -31q0 -18 -2 -40l-1 -4q-5 -40 -23 -88q-18 -51 -51.5 -97t-91 -87.5t-160.5 -49.5zM545 1171q115 32 146 123
q-73 26 -92 62q-14 27 -14 60q0 10 1 21q7 45 30.5 79.5t61.5 52.5t74 19h2q33 0 62 -12q29 -13 45 -39t20 -55q1 -14 1 -31q0 -18 -2 -40l-1 -4q-5 -40 -23 -88q-18 -51 -51.5 -97t-91 -87.5t-160.5 -49.5z" />
    <glyph glyph-name="quotedblbase" unicode="&#x201e;" horiz-adv-x="713" 
d="M25 -109q115 32 146 123q-73 26 -92 62q-14 27 -14 60q0 10 1 21q7 45 30.5 79.5t61.5 52.5t74 19h2q33 0 62 -12q29 -13 45 -39t20 -55q1 -14 1 -31q0 -18 -2 -40l-1 -4q-5 -40 -23 -88q-18 -51 -51.5 -97t-91 -87.5t-160.5 -49.5zM358 -159q115 32 146 123
q-73 26 -92 62q-14 27 -14 60q0 10 1 21q7 45 30.5 79.5t61.5 52.5t74 19h2q33 0 62 -12q29 -13 45 -39t20 -55q1 -14 1 -31q0 -18 -2 -40l-1 -4q-5 -40 -23 -88q-18 -51 -51.5 -97t-91 -87.5t-160.5 -49.5z" />
    <glyph glyph-name="dagger" unicode="&#x2020;" horiz-adv-x="920" 
d="M171 930l35 250h290l41 290h250l-41 -290h300l-35 -250h-300l-126 -900h-250l126 900h-290z" />
    <glyph glyph-name="daggerdbl" unicode="&#x2021;" horiz-adv-x="920" 
d="M410 570l51 360h-290l35 250h290l41 290h250l-41 -290h300l-35 -250h-300l-51 -360h300l-35 -250h-300l-41 -290h-250l41 290h-290l35 250h290z" />
    <glyph glyph-name="bullet" unicode="&#x2022;" horiz-adv-x="515" 
d="M408 918q104 -5 136 -57q25 -43 25 -115q0 -16 -1 -33q-1 -21 -4 -41q-9 -70 -36 -120q-36 -65 -121 -88q-38 -11 -74 -11q-45 0 -86 16q-76 29 -90 106q-6 30 -6 60q0 21 3 42q4 26 11 52q24 77 83 136q51 54 141 54q9 0 19 -1z" />
    <glyph glyph-name="ellipsis" unicode="&#x2026;" horiz-adv-x="1150" 
d="M192 45q-60 0 -97 43q-30 35 -30 82q0 10 1 21q9 61 58 104t109 43q61 0 98 -43q30 -35 30 -81q0 -11 -2 -23q-8 -60 -57 -103t-110 -43zM575 45q-60 0 -97 43q-30 35 -30 82q0 10 1 21q9 61 58 104t109 43q61 0 98 -43q30 -35 30 -81q0 -11 -2 -23q-8 -60 -57 -103
t-110 -43zM958 45q-60 0 -97 43q-30 35 -30 82q0 10 1 21q9 61 58 104t109 43q61 0 98 -43q30 -35 30 -81q0 -11 -2 -23q-8 -60 -57 -103t-110 -43z" />
    <glyph glyph-name="perthousand" unicode="&#x2030;" horiz-adv-x="2451" 
d="M1390 1560l-657 -1540l-166 30l657 1540zM632 1560q292 0 292 -293q0 -49 -8 -105q-2 -16 -6 -32q-74 -431 -423 -435q-4 -1 -8 -1q-282 0 -282 296q0 51 8 111l4 24q71 435 423 435zM566 1329q-65 -17 -103 -121q-22 -62 -31 -124q-6 -43 -6 -86q1 -106 87 -110h8
q80 0 121 79q35 66 47 156q3 22 6 45q1 22 1 41q0 84 -28 108q-23 18 -58 18q-20 0 -44 -6zM1450 906q292 0 292 -293q0 -49 -8 -105q-2 -16 -6 -32q-74 -431 -423 -435q-4 -1 -8 -1q-282 0 -282 296q0 51 8 111l4 24q71 435 423 435zM1384 675q-65 -17 -103 -121
q-22 -62 -31 -124q-6 -43 -6 -86q1 -106 87 -110h8q80 0 121 79q35 66 47 156q3 22 6 45q1 22 1 41q0 84 -28 108q-23 18 -58 18q-20 0 -44 -6zM2200 906q292 0 292 -293q0 -49 -8 -105q-2 -16 -6 -32q-74 -431 -423 -435q-4 -1 -8 -1q-282 0 -282 296q0 51 8 111l4 24
q71 435 423 435zM2134 675q-65 -17 -103 -121q-22 -62 -31 -124q-6 -43 -6 -86q1 -106 87 -110h8q80 0 121 79q35 66 47 156q3 22 6 45q1 22 1 41q0 84 -28 108q-23 18 -58 18q-20 0 -44 -6z" />
    <glyph glyph-name="guilsinglleft" unicode="&#x2039;" horiz-adv-x="540" 
d="M148 700l286 400h220l-256 -400l144 -400h-220z" />
    <glyph glyph-name="guilsinglright" unicode="&#x203a;" horiz-adv-x="540" 
d="M312 300h-220l256 400l-144 400h220l174 -400z" />
    <glyph glyph-name="Euro" unicode="&#x20ac;" horiz-adv-x="1039" 
d="M568 810l-1 -5q-9 -67 -14 -125h180l-54 -170h-133q8 -194 100 -194h1q149 1 182 240l14 99h248l-10 -75q-70 -498 -483 -522q-12 -1 -23 -1q-303 0 -304 453h-159l24 170h144q5 56 13 118l2 12h-141l24 170h148q122 542 465 542q315 0 315 -346q0 -63 -10 -138
q-4 -29 -9 -60l-222 -1l3 27q7 47 7 84q0 151 -107 151q-108 0 -169 -259h229l-54 -170h-206z" />
    <glyph glyph-name="trademark" unicode="&#x2122;" horiz-adv-x="1080" 
d="M662 1510l-17 -120h-140l-53 -380h-120l53 380h-140l17 120h400zM642 1010l70 500h160l68 -300l152 300h160l-70 -500h-120l42 300l-142 -300h-100l-58 300l-42 -300h-120z" />
    <glyph glyph-name="uniE000" unicode="&#xe000;" horiz-adv-x="967" 
d="M-5 90q308 854 451 1188l-132 3l44 279l523 4q48 -638 115 -1428l-263 -52l-28 379h-311l-141 -409zM737 744q-22 216 -97 517q-127 -253 -228 -524z" />
    <glyph glyph-name="uniE001" unicode="&#xe001;" horiz-adv-x="931" 
d="M511 1309l-53 -429q187 10 254 127q35 62 44 122q2 18 2 35q0 32 -8 64q-23 85 -167 85q-32 0 -72 -4zM441 674l-47 -335q23 -1 44 -1q186 0 249 102q35 57 41 103q2 11 2 21q0 32 -17 58q-35 55 -192 55q-37 0 -80 -3zM82 85q43 279 76 513q57 403 82 671l-149 -2
l34 308l283 12h22q343 0 466 -91t123 -244v-10q-2 -41 -7 -79q-16 -109 -64 -189q-66 -109 -203 -156q142 -22 193 -105q30 -49 30 -129q0 -33 -5 -71q-3 -25 -9 -52q-36 -170 -143.5 -254t-281.5 -115q-98 -17 -227 -17q-101 0 -220 10z" />
    <glyph glyph-name="uniE002" unicode="&#xe002;" horiz-adv-x="896" 
d="M486 1241q-64 -336 -108 -646q-16 -116 -30 -228q34 -8 66 -8q88 0 157 61q93 82 133 368l1 4q14 107 14 187q0 134 -41 191q-56 74 -151 74q-20 0 -41 -3zM76 88q49 337 89 622t71 517l-121 -2l32 309l122 10q67 4 128 4q346 0 477 -125q116 -113 116 -371
q0 -81 -11 -176l-10 -72q-48 -342 -135 -488q-96 -161 -297 -214q-116 -31 -250 -31q-100 0 -211 17z" />
    <glyph glyph-name="uniE003" unicode="&#xe003;" horiz-adv-x="693" 
d="M60 141q91 521 172 1099q19 131 37 265l595 -8l-45 -320q-213 19 -365 19l-44 -268q250 6 367 21l-40 -295q-137 5 -373 14l-28 -215q185 -9 308 -9q33 0 62 1l-41 -323q-174 19 -510 19h-95z" />
    <glyph glyph-name="uniE004" unicode="&#xe004;" horiz-adv-x="668" 
d="M69 207q105 630 172 1112l21 148q340 0 575 22l-44 -309q-127 7 -227 7q-85 0 -151 -5l-37 -286h51q137 0 271 13l-34 -241q-137 5 -228 5h-29l-32 -228q139 6 292 25l-39 -276q-251 13 -477 13h-84z" />
    <glyph glyph-name="uniE005" unicode="&#xe005;" horiz-adv-x="731" 
d="M859 1417l-35 -247q-203 -17 -404 -27l-55 -318h392l-24 -244h-364l-38 -268h393l-35 -254l-646 9l183 1319q315 0 633 30z" />
    <glyph glyph-name="uniE006" unicode="&#xe006;" horiz-adv-x="902" 
d="M1071 1484q-107 -673 -227 -1450h-227l82 583h-285l-75 -536l-273 1q64 367 107 673q42 305 65 549h-130l37 230h386l-100 -633l283 -12l87 619z" />
    <glyph glyph-name="uniE007" unicode="&#xe007;" horiz-adv-x="1320" 
d="M632 1533l88 -1036l306 960l455 -5q-58 -325 -104 -656q-52 -369 -90 -747l-294 -20q56 398 128 973l-287 -879l-313 -21l-67 948l-139 -960l-246 -17q53 329 89 585q45 320 63 526l-140 -5l51 352z" />
    <glyph glyph-name="uniE008" unicode="&#xe008;" horiz-adv-x="940" 
d="M64 79q130 736 180 1091l-185 -13l40 328l457 29l160 -783q51 388 90 794l309 4q-132 -613 -220 -1238q-12 -84 -22 -168l-272 -3l-174 806q-50 -446 -93 -829z" />
    <glyph glyph-name="uniE009" unicode="&#xe009;" horiz-adv-x="876" 
d="M82 80q43 263 76 502q52 367 82 680l-181 -14l37 253q261 41 440 41q229 0 326 -66q132 -90 132 -295q0 -51 -8 -109l-4 -30q-54 -316 -199.5 -404.5t-341.5 -94.5q-5 -31 -10 -64q-23 -166 -38 -393zM504 1260l-62 -489q187 10 237 133q23 56 31 115q5 35 5 70
q0 36 -5 72q-15 107 -135 107q-32 0 -71 -8z" />
    <glyph glyph-name="uniE00A" unicode="&#xe00a;" horiz-adv-x="876" 
d="M82 80q43 263 76 502q52 367 82 680l-181 -14l37 253q261 41 440 41q229 0 326 -66q132 -90 132 -295q0 -51 -8 -109l-4 -30q-54 -316 -199.5 -404.5t-341.5 -94.5q-5 -31 -10 -64q-23 -166 -38 -393zM454 1260l-62 -489q187 10 247 89.5t70 153.5q3 21 3 43
q0 56 -20 121q-25 83 -205 83q-16 0 -33 -1z" />
    <glyph glyph-name="uniE00B" unicode="&#xe00b;" horiz-adv-x="876" 
d="M82 80q43 263 77 502q51 367 116 930q82 30 261 30q229 0 326 -66q132 -90 132 -295q0 -51 -8 -109l-4 -30q-54 -316 -199.5 -404.5t-341.5 -94.5q-5 -31 -10 -64q-23 -166 -38 -393zM454 1260l-62 -489q188 10 247.5 89.5t69.5 153.5q3 21 3 43q0 56 -20 121
q-25 83 -205 83q-16 0 -33 -1z" />
    <glyph glyph-name="uniE00C" unicode="&#xe00c;" horiz-adv-x="704" 
d="M177 1575h334q330 0 330 -269q0 -16 -1 -33q-3 -42 -8 -81q-34 -241 -160 -332q-146 -106 -293 -106q-27 -322 -45 -632l-263 -2q99 646 163 1105l25 176l-106 7zM450 1375q-25 -142 -51 -329l-15 -111h6q114 0 156 105q29 70 40 146q5 38 6 79v2q0 108 -126 108h-16z
" />
    <glyph glyph-name="uniE00D" unicode="&#xe00d;" horiz-adv-x="690" 
d="M485 1575h12q331 0 331 -269q0 -16 -1 -33q-4 -42 -9 -79q-34 -242 -160 -334q-146 -106 -293 -106q-26 -322 -45 -632l-263 -2q99 646 180 1223l32 228zM436 1375q-23 -137 -48 -316l-17 -124h6q113 0 156 105q29 70 40 145q5 39 6 80q0 110 -127 110h-16z" />
    <glyph glyph-name="uniE00E" unicode="&#xe00e;" horiz-adv-x="866" 
d="M94 1549q96 5 181 5q716 0 716 -351q0 -26 -4 -54q-1 -14 -3 -28q-33 -232 -206 -340q-183 -116 -394 -156l-52 -550l-271 -5q60 372 103 679q44 308 70 550h-170zM521.5 934.5q77.5 23.5 137.5 89.5q37 39 44 93q2 14 2 30q0 21 -4 45q-19 102 -268 107l-56 -396
q67 8 144.5 31.5z" />
    <glyph glyph-name="uniE00F" unicode="&#xe00f;" horiz-adv-x="856" 
d="M258 1549q101 9 189 9q535 0 535 -340q0 -33 -5 -69q-1 -14 -3 -28q-33 -232 -206 -340q-184 -116 -395 -156l-52 -550l-271 -5q60 372 112 742t96 737zM510.5 934.5q77.5 23.5 137.5 89.5q37 39 45 96q2 15 2 32q0 24 -4 50q-14 92 -186 92q-39 0 -85 -5l-54 -386
q67 8 144.5 31.5z" />
    <glyph glyph-name="uniE010" unicode="&#xe010;" horiz-adv-x="890" 
d="M465 1561q530 0 530 -352q0 -36 -6 -77q-47 -341 -224 -443q-174 -102 -355 -102h-4l-60 -429l-260 -4l190 1173l-157 -7l33 238zM465 1288l-65 -467q272 7 304 240l2 8q3 23 3 44q0 177 -200 177q-21 0 -44 -2z" />
    <glyph glyph-name="uniE011" unicode="&#xe011;" horiz-adv-x="890" 
d="M465 1561q527 0 527 -366q0 -39 -6 -83q-41 -291 -232.5 -408t-347.5 -117l-60 -429l-260 -4l201 1393zM465 1288l-65 -467q272 7 304 240l2 8q3 23 3 44q0 177 -200 177q-21 0 -44 -2z" />
    <glyph glyph-name="uniE012" unicode="&#xe012;" horiz-adv-x="896" 
d="M71 64q46 286 82 540q55 389 85 703l-149 -14l31 252q261 37 444 37q327 0 400 -119q61 -103 61 -220q0 -32 -4 -64q-9 -63 -35 -131q-90 -230 -284 -289q127 -18 177 -140q20 -49 20 -160q0 -156 -39 -434l-7 -43l-302 -4q23 126 37 226q22 157 22 251q0 87 -19 120
q-46 76 -123 76q-15 0 -31 -3q-37 -305 -55 -578zM501 1304l-53 -428q187 9 254 126q36 62 44 121q2 18 2 35q0 33 -8 65q-24 85 -167 85q-33 0 -72 -4z" />
    <glyph glyph-name="uniE013" unicode="&#xe013;" horiz-adv-x="726" 
d="M177 1575h334q339 0 339 -284v-18q-1 -37 -6 -71q-35 -249 -249 -344q120 -21 120 -316q0 -148 -30 -366q-9 -63 -21 -133h-224q16 92 27 172q26 185 26 307q0 234 -96 234q-9 0 -18 -2q-27 -322 -45 -632l-263 -2q99 646 163 1105l25 176l-106 7zM450 1375
q-25 -142 -51 -329l-15 -111h6q114 0 156 105q29 70 40 146q5 38 6 79v2q0 108 -126 108h-16z" />
    <glyph glyph-name="uniE014" unicode="&#xe014;" horiz-adv-x="726" 
d="M511 1575q339 0 339 -284v-18q-1 -37 -6 -71q-35 -249 -249 -344q120 -21 120 -316q0 -148 -30 -366q-9 -63 -21 -133h-224q16 92 27 172q26 185 26 307q0 234 -96 234q-9 0 -18 -2q-27 -322 -45 -632l-263 -2q99 646 212 1451zM450 1375q-25 -142 -51 -329l-15 -111h6
q114 0 156 105q29 70 40 146q5 38 6 79v2q0 108 -126 108h-16z" />
    <glyph glyph-name="uniE015" unicode="&#xe015;" horiz-adv-x="901" 
d="M94 1549q96 5 181 5q716 0 716 -351q0 -26 -4 -54q-42 -293 -387 -409l263 -670l-287 -70q-97 415 -192 625l-52 -550l-271 -5q60 372 103 679q44 308 70 550h-170zM521.5 934.5q77.5 23.5 137.5 89.5q37 39 44 93q2 14 2 30q0 21 -4 45q-19 102 -268 107l-56 -396
q67 8 144.5 31.5z" />
    <glyph glyph-name="uniE016" unicode="&#xe016;" horiz-adv-x="901" 
d="M273 1544q51 2 98 2q620 0 620 -339q0 -28 -4 -58q-42 -293 -387 -409l263 -670l-287 -70q-97 415 -192 625l-52 -550l-271 -5q60 372 103 679q44 308 109 795zM521.5 934.5q77.5 23.5 137.5 89.5q37 39 44 93q2 14 2 30q0 21 -4 45q-19 102 -268 107l-56 -396
q67 8 144.5 31.5z" />
    <glyph glyph-name="uniE017" unicode="&#xe017;" horiz-adv-x="890" 
d="M465 1561q530 0 530 -352q0 -36 -6 -77l-11 -78q-39 -283 -294 -428q141 -139 141 -482q0 -37 -2 -77l-281 -16q15 116 15 212q0 213 -73 324h-78l-60 -429l-260 -4l190 1173l-157 -7l33 238zM465 1288l-65 -467q272 7 304 240l2 8q3 23 3 44q0 177 -200 177
q-21 0 -44 -2z" />
    <glyph glyph-name="uniE018" unicode="&#xe018;" horiz-adv-x="890" 
d="M465 1561q529 0 529 -352q0 -36 -6 -77l-11 -78q-39 -283 -293 -428q141 -139 141 -482q0 -37 -2 -77l-282 -16q15 118 15 215q0 211 -72 321h-78l-60 -429l-260 -4l201 1393zM465 1288l-65 -467q272 7 304 240l2 8q3 23 3 44q0 177 -200 177q-21 0 -44 -2z" />
    <glyph glyph-name="uniE019" unicode="&#xe019;" horiz-adv-x="1251" 
d="M536 1501q-108 -601 -191 -1196q133 0 410 14l-32 -259q-211 8 -403 8q-133 0 -258 -4q20 136 39 273q82 578 149 1154zM924 1514h243l114 -1095l-226 -48l-23 218h-262l-62 -194l-254 24q190 383 470 1095zM981 1232l-153 -399h219q-30 249 -66 399z" />
    <glyph glyph-name="uniE01A" unicode="&#xe01a;" horiz-adv-x="1260" 
d="M1359 1587l-35 -247q-202 -17 -434 -27l-20 -138h413l-24 -244h-365l-24 -168h454l-35 -254l-707 9l145 1039q315 0 632 30zM83 56q48 314 88 600q56 399 97 743l262 21l-181 -1093q337 10 671 35l-37 -291q-472 0 -900 -15z" />
    <glyph glyph-name="uniE01B" unicode="&#xe01b;" horiz-adv-x="993" 
d="M842 1586l-130 -848q36 -1 73 -1q134 0 273 9l-46 -263q-129 11 -258 11t-258 -11q44 263 82 536q39 274 72 559zM64 70q21 141 40 279q87 619 149 1167l253 8q-98 -582 -196 -1182h61q329 0 519 20l-39 -298q-253 8 -519 8q-132 0 -268 -2z" />
    <glyph glyph-name="uniE01C" unicode="&#xe01c;" horiz-adv-x="1271" 
d="M54 0q21 141 40 279q87 619 149 1167l253 8q-98 -582 -196 -1182h61q329 0 519 20l-39 -298q-253 8 -519 8q-132 0 -268 -2zM667 1546q101 8 189 8q517 0 517 -285v-11q-3 -48 -9 -91q-31 -220 -174 -300q-183 -103 -393 -138l-13 -275l-271 -4q37 205 77 488t77 608z
M926 974.5q77 23.5 125.5 76t55.5 99.5q1 8 1 17q0 40 -22 84q-28 53 -116 68q-66 11 -109 11q-14 0 -25 -1l-54 -386q67 8 144 31.5z" />
    <glyph glyph-name="uniE01D" unicode="&#xe01d;" horiz-adv-x="1240" 
d="M64 70q21 141 40 279q87 619 149 1167l253 8q-98 -582 -196 -1182h61q329 0 519 20l-39 -298q-253 8 -519 8q-132 0 -268 -2zM869 1591q495 0 495 -338v-12q-2 -51 -8 -98q-38 -272 -254 -387q130 -128 130 -501q0 -74 -5 -158l-282 -16q23 177 23 310q0 225 -66 326h-78
l-34 -239l-229 -4l130 1103zM869 1318l-51 -367q270 7 295 185v3q2 17 2 32q0 149 -202 149q-21 0 -44 -2z" />
    <glyph glyph-name="uniE01E" unicode="&#xe01e;" horiz-adv-x="1230" 
d="M64 70q21 141 40 279q87 619 149 1167l253 8q-98 -582 -196 -1182h61q229 0 549 20l-39 -298q-383 8 -549 8q-132 0 -268 -2zM612 1283l19 247q78 -2 159 -2q232 0 621 33l-29 -237l-337 -26q-14 -92 -28 -187q-53 -381 -64 -641l-269 -16q40 226 90 581q18 128 32 248
h-194z" />
    <glyph glyph-name="uniE01F" unicode="&#xe01f;" horiz-adv-x="1271" 
d="M64 70q21 141 40 279q87 619 149 1167l253 8q-98 -582 -196 -1182h61q149 0 299 20l-39 -298q-213 8 -299 8q-132 0 -268 -2zM612 1283l19 247q78 -2 159 -2q232 0 621 33l-29 -237l-226 -16q-14 -92 -27 -187q-54 -381 -121 -1041l-269 -16q96 626 146 981
q18 128 33 248z" />
    <glyph glyph-name="uniE020" unicode="&#xe020;" horiz-adv-x="1540" 
d="M177 1575h334q339 0 339 -284v-18q-1 -37 -6 -71q-35 -249 -249 -344q82 -28 82 -130q0 -20 -3 -44l-43 -311q-1 -8 -1 -15q0 -71 81 -77q14 -1 35 -1q103 0 344 28l-10 -237q-180 -21 -342 -21q-282 0 -282 217q0 26 4 56l32 320v7q0 104 -113 104q-27 -322 -45 -632
l-263 -2q99 646 163 1105l25 176l-106 7zM450 1375q-25 -142 -51 -329l-15 -111h6q114 0 156 105q29 70 40 146q5 38 6 79v2q0 108 -126 108h-16zM1489 1524q34 -544 71 -1099l-257 -50l15 285l-248 15l-109 -275l-224 30q379 752 502 1094h250zM1325 1279l-193 -374
q93 -20 217 -25q-1 205 -24 399z" />
    <glyph glyph-name="uniE021" unicode="&#xe021;" horiz-adv-x="1526" 
d="M268 1561q127 26 229 26q108 0 188 -29q127 -48 127 -239q0 -40 -6 -86l-2 -16q-36 -254 -223 -359q82 -28 82 -130q0 -20 -3 -44l-43 -311q-1 -8 -1 -15q0 -71 81 -77q14 -1 35 -1q103 0 344 28l-9 -237q-180 -21 -343 -21q-282 0 -282 217q0 26 4 56l32 320v7
q0 104 -113 104q-26 -322 -45 -632l-263 -2q99 646 179 1216zM436 1375q-23 -137 -48 -316l-17 -124h6q113 0 156 105q29 70 40 145q5 39 6 80q0 110 -127 110h-16zM1475 1524q34 -544 71 -1099l-257 -50l15 285l-248 15l-109 -275l-224 30q379 752 502 1094h250zM1311 1279
l-193 -374q93 -20 217 -25q-1 205 -24 399z" />
    <glyph glyph-name="uniE022" unicode="&#xe022;" horiz-adv-x="1640" 
d="M94 1549q96 5 181 5q716 0 716 -351q0 -26 -4 -54q-42 -293 -387 -409l172 -445h370l-22 -225h-554q-87 345 -182 555l-52 -550l-271 -5q60 372 103 679q44 308 70 550h-170zM1589 1524q34 -544 71 -1099l-257 -50l15 285l-248 15l-109 -275l-224 30q379 752 502 1094
h250zM1425 1279l-193 -374q93 -20 217 -25q-1 205 -24 399zM521.5 934.5q77.5 23.5 137.5 89.5q37 39 44 93q2 14 2 30q0 21 -4 45q-19 102 -268 107l-56 -396q67 8 144.5 31.5z" />
    <glyph glyph-name="uniE023" unicode="&#xe023;" horiz-adv-x="1629" 
d="M256 1539q143 21 261 21q167 0 287 -41q177 -61 177 -293q0 -36 -4 -77q-42 -293 -388 -409l173 -445h369l-22 -225h-554q-87 345 -182 555l-52 -550l-271 -5q60 372 112 739q52 368 94 730zM1578 1524q34 -544 71 -1099l-257 -50l15 285l-248 15l-109 -275l-224 30
q379 752 502 1094h250zM1414 1279l-193 -374q93 -20 217 -25q-1 205 -24 399zM510.5 934.5q77.5 23.5 137.5 89.5q37 39 45 100q3 18 3 38q0 24 -4 50q-12 95 -169 95q-44 0 -101 -8l-56 -396q67 8 144.5 31.5z" />
    <glyph glyph-name="uniE024" unicode="&#xe024;" horiz-adv-x="1853" 
d="M1414 1600l376 -20q10 -712 48 -1344l-280 -39l6 312l-350 10q-47 -124 -90 -244l-250 39q301 647 540 1286zM465 1561q530 0 530 -352q0 -36 -6 -77l-11 -78q-39 -283 -294 -428q68 -110 68 -280q0 -70 -11 -149l384 -11l-34 -246l-592 21q22 203 22 347q0 189 -37 279
h-78l-60 -429l-260 -4l190 1173l-157 -7l33 238zM465 1288l-65 -467q272 7 304 240l2 8q3 23 3 44q0 177 -200 177q-21 0 -44 -2zM1301 799l282 -10l-46 441q-109 -200 -236 -431z" />
    <glyph glyph-name="uniE025" unicode="&#xe025;" horiz-adv-x="1853" 
d="M1414 1600l376 -20q10 -712 48 -1344l-280 -39l6 312l-350 10q-47 -124 -91 -244l-250 39q302 647 541 1286zM295 1537q80 7 150 7q539 0 539 -394q0 -46 -7 -96q-39 -283 -293 -428q68 -110 68 -280q0 -70 -11 -149l384 -11l-34 -246l-593 21q22 205 22 351
q0 185 -36 275h-78l-60 -429l-260 -4zM465 1288l-65 -467q272 7 304 240l2 8q3 23 3 44q0 177 -200 177q-21 0 -44 -2zM1301 799l282 -10l-46 441q-110 -200 -236 -431z" />
    <glyph glyph-name="uniE026" unicode="&#xe026;" horiz-adv-x="1322" 
d="M182 1575h334q339 0 339 -284v-18q-1 -37 -6 -71q-35 -249 -249 -344q82 -28 82 -130q0 -20 -3 -44l-43 -311q-1 -8 -1 -15q0 -71 81 -77q14 -1 35 -1q103 0 344 28l-10 -237q-180 -21 -342 -21q-282 0 -282 217q0 26 4 56l32 320v7q0 104 -113 104q-27 -322 -45 -632
l-263 -2q99 646 163 1105l25 176l-106 7zM455 1375q-25 -142 -51 -329l-15 -111h6q114 0 156 105q29 70 40 146q5 38 6 79v2q0 108 -126 108h-16zM785 401q80 440 150 936q16 112 31 228l535 -8l-41 -290q-212 19 -344 19l-39 -228q231 6 347 21l-30 -225q-137 5 -353 14
q-17 -123 -17 -205q162 -9 279 -9q32 0 61 1l-33 -273q-175 19 -465 19h-81z" />
    <glyph glyph-name="uniE027" unicode="&#xe027;" horiz-adv-x="1304" 
d="M268 1561q127 26 229 26q108 0 188 -29q127 -48 127 -239q0 -40 -6 -86l-2 -16q-36 -254 -223 -359q82 -28 82 -130q0 -20 -3 -44l-43 -311q-1 -8 -1 -15q0 -71 81 -77q14 -1 35 -1q103 0 344 28l-9 -237q-180 -21 -343 -21q-282 0 -282 217q0 26 4 56l32 320v7
q0 104 -113 104q-26 -322 -45 -632l-263 -2q99 646 179 1216zM436 1375q-23 -137 -48 -316l-17 -124h6q113 0 156 105q29 70 40 145q5 39 6 80q0 110 -127 110h-16zM766 401q80 440 150 936q16 112 31 228l536 -8l-41 -290q-212 19 -345 19l-39 -228q231 6 347 21l-30 -225
q-137 5 -352 14q-17 -123 -18 -205q162 -9 279 -9q32 0 61 1l-33 -273q-175 19 -465 19h-81z" />
    <glyph glyph-name="uniE028" unicode="&#xe028;" horiz-adv-x="1457" 
d="M94 1549q96 5 181 5q716 0 716 -351q0 -26 -4 -54q-42 -293 -387 -409l172 -445h370l-22 -225h-554q-87 345 -182 555l-52 -550l-271 -5q60 372 103 679q44 308 70 550h-170zM521.5 934.5q77.5 23.5 137.5 89.5q37 39 44 93q2 14 2 30q0 21 -4 45q-19 102 -268 107
l-56 -396q67 8 144.5 31.5zM921 401q79 440 149 936q16 112 31 228l535 -8l-41 -290q-212 19 -344 19l-39 -228q231 6 347 21l-30 -225q-137 5 -353 14q-17 -123 -17 -205q162 -9 279 -9q32 0 61 1l-33 -273q-174 19 -464 19h-81z" />
    <glyph glyph-name="uniE029" unicode="&#xe029;" horiz-adv-x="1446" 
d="M256 1539q143 21 261 21q167 0 287 -41q177 -61 177 -293q0 -36 -4 -77q-42 -293 -388 -409l173 -445h369l-22 -225h-554q-87 345 -182 555l-52 -550l-271 -5q60 372 112 739q52 368 94 730zM510.5 934.5q77.5 23.5 137.5 89.5q37 39 45 100q3 18 3 38q0 24 -4 50
q-12 95 -169 95q-44 0 -101 -8l-56 -396q67 8 144.5 31.5zM910 401q79 440 149 936q16 112 31 228l535 -8l-41 -290q-212 19 -344 19l-39 -228q231 6 347 21l-30 -225q-137 5 -353 14q-17 -123 -17 -205q162 -9 279 -9q32 0 61 1l-33 -273q-174 19 -464 19h-81z" />
    <glyph glyph-name="uniE02A" unicode="&#xe02a;" horiz-adv-x="1492" 
d="M465 1561q530 0 530 -352q0 -36 -6 -77l-11 -78q-39 -283 -294 -428q68 -110 68 -280q0 -70 -11 -149l384 -11l-34 -246l-592 21q22 203 22 347q0 189 -37 279h-78l-60 -429l-260 -4l190 1173l-157 -7l33 238zM465 1288l-65 -467q272 7 304 240l2 8q3 23 3 44
q0 177 -200 177q-21 0 -44 -2zM944 281q88 500 158 996q16 112 31 228l535 -8l-41 -290q-212 19 -344 19l-44 -258q231 6 347 21l-29 -225q-138 5 -353 14q-21 -146 -21 -228v-7q161 -9 278 -9q32 0 62 1l-34 -273q-174 19 -464 19h-81z" />
    <glyph glyph-name="uniE02B" unicode="&#xe02b;" horiz-adv-x="1498" 
d="M295 1537q80 7 150 7q539 0 539 -394q0 -46 -7 -96q-39 -283 -293 -428q68 -110 68 -280q0 -70 -11 -149l384 -11l-34 -246l-593 21q22 205 22 351q0 185 -36 275h-78l-60 -429l-260 -4zM465 1288l-65 -467q272 7 304 240l2 8q3 23 3 44q0 177 -200 177q-21 0 -44 -2z
M924 281q88 500 158 996q16 112 31 228l535 -8l-41 -290q-212 19 -344 19l-44 -258q231 6 347 21l-29 -225q-138 5 -353 14q-21 -146 -21 -228v-7q161 -9 278 -9q32 0 62 1l-34 -273q-174 19 -464 19h-81z" />
    <glyph glyph-name="uniE02C" unicode="&#xe02c;" horiz-adv-x="1663" 
d="M218 1219l28 279q541 36 1076 72l-10 -217l-528 -66q-90 -561 -181 -1210l-276 16q116 643 189 1163zM890 983l19 247q77 -2 158 -2q332 0 721 33l-28 -237l-338 -26q-14 -92 -27 -187q-54 -381 -100 -821l-270 -26q76 416 126 771q18 128 33 248h-294z" />
    <glyph glyph-name="uniE02D" unicode="&#xe02d;" horiz-adv-x="1663" 
d="M1494 1256q-73 -520 -137 -1163l-280 -16q91 649 159 1210l-510 66l50 217q525 -36 1056 -72l-50 -279zM190 983l19 247q127 -3 263 -3q287 0 613 14l-28 -237l-335 -6q-14 -92 -27 -187q-54 -381 -100 -821l-270 -26q76 416 126 771q18 128 33 248h-294z" />
    <glyph glyph-name="uniE02E" unicode="&#xe02e;" 
d="M543 1077q285 0 285 -331q0 -64 -11 -141l-6 -38q-86 -511 -435 -516q-4 -1 -8 -1q-275 0 -275 332q0 69 12 151l4 28q82 516 434 516zM476 849q-62 -22 -104 -163q-24 -84 -36 -169q-8 -57 -11 -115v-16q0 -128 77 -133h7q76 0 119 107q36 89 53 211q4 30 8 61
q5 51 5 90q0 84 -22 111q-21 24 -54 24q-19 0 -42 -8z" />
    <glyph glyph-name="uniE02F" unicode="&#xe02f;" horiz-adv-x="521" 
d="M632 1086q-74 -472 -96 -632q-23 -161 -53 -394l-260 -13l101 773q-86 -17 -177 -64l-21 189l239 146z" />
    <glyph glyph-name="uniE030" unicode="&#xe030;" horiz-adv-x="855" 
d="M171 702l5 32q28 204 98 277q98 101 229 121q47 7 91 7q79 0 149 -22q109 -35 153 -138q20 -52 20 -116q0 -30 -4 -62l-4 -28q-24 -121 -131 -230.5t-353 -258.5l438 7l-35 -231q-289 -13 -742 -13l15 273q295 164 420 261q119 91 133 193l2 11q1 8 1 15q0 92 -111 92
q-98 -3 -123 -184l-2 -11z" />
    <glyph glyph-name="uniE031" unicode="&#xe031;" horiz-adv-x="824" 
d="M125 612q4 53 10 99q23 159 83 245q76 110 219 136q70 13 132 13q63 0 118 -14q107 -27 161 -121q39 -69 39 -177q0 -38 -5 -81l-4 -30q-20 -142 -73 -207q-59 -73 -176 -110q91 -14 130 -67.5t44 -143.5q1 -14 1 -28q0 -38 -6 -82q-7 -49 -22 -106q-33 -125 -132 -216
t-280 -95h-16q-169 0 -258 88q-63 62 -63 221q0 73 13 166l1 6l261 15q-4 -17 -6 -33q-6 -44 -6 -79q0 -132 86 -138q7 -1 14 -1q104 0 141 110q10 31 14 59q3 18 3 35q0 57 -29 102q-51 78 -194 78l15 190q17 -1 32 -1q125 0 182 72q53 67 69 174q2 21 4 43q1 10 1 19
q0 109 -98 109h-13q-106 -7 -135 -210q-3 -24 -6 -51z" />
    <glyph glyph-name="uniE032" unicode="&#xe032;" horiz-adv-x="921" 
d="M51 87l13 239q224 376 507 778l319 -18l-112 -772l140 -3l-33 -239h-137l-59 -421l-241 9l62 417zM546 311l76 516q-146 -254 -306 -511z" />
    <glyph glyph-name="uniE033" unicode="&#xe033;" horiz-adv-x="824" 
d="M43 105l238 20q-5 -39 -5 -71q0 -148 113 -148q137 0 167 131q13 61 22 123q10 71 13 143v15q0 116 -89 116h-6q-103 -5 -171 -159l-242 6l145 829l673 12l-31 -243l-446 -9l-66 -340q65 133 189 152q29 5 57 5q87 0 154 -46q81 -56 81 -253q0 -16 -1 -33
q-3 -77 -14 -151q-19 -140 -67 -265q-73 -191 -213 -237q-100 -33 -196 -33q-39 0 -78 6q-133 19 -199 117q-42 62 -42 171q0 48 8 104q3 18 6 38z" />
    <glyph glyph-name="uniE034" unicode="&#xe034;" horiz-adv-x="885" 
d="M425 804q98 147 246 147h2q149 -1 212 -109q51 -88 51 -197q0 -26 -3 -53l-4 -25q-18 -129 -80 -257q-67 -140 -177 -186q-80 -35 -174 -35q-34 0 -70 5q-135 17 -201.5 126t-77.5 290q-2 34 -2 71q0 105 17 227q8 58 21 119q45 236 114 384.5t173 211.5q101 61 220 61h6
q122 -2 195.5 -79t80.5 -210q1 -18 1 -35q0 -70 -10 -138q-6 -45 -16 -88h-224q7 35 11 65q7 53 7 92q0 100 -47 113q-18 4 -34 4q-58 0 -105 -59q-62 -76 -92 -210q-22 -91 -33 -167q-5 -36 -7 -68zM418 614q-7 -55 -7 -99q0 -60 14 -98q23 -66 86 -76q9 -2 20 -2
q50 0 95 41q49 45 66 162l3 20q2 19 2 35q0 101 -73 121q-14 3 -28 3q-77 0 -178 -107z" />
    <glyph glyph-name="uniE035" unicode="&#xe035;" horiz-adv-x="826" 
d="M182 844l46 250q363 6 699 9l-36 -254q-358 -570 -481 -1131l-233 27q120 543 444 1102z" />
    <glyph glyph-name="uniE036" unicode="&#xe036;" horiz-adv-x="820" 
d="M718 805q128 -61 144 -176q6 -40 6 -81t-6 -83q-5 -38 -15 -77q-33 -125 -132.5 -216t-279.5 -95h-16q-169 0 -258 88q-77 76 -77 203q0 26 3 54l2 22q22 151 92 241q76 96 170 121q-63 27 -120 108q-44 60 -44 160q0 33 5 71l1 9q20 144 96 252q76 110 219 136
q70 13 132 13q63 0 118 -14q107 -27 160 -121q41 -72 41 -180q0 -32 -4 -68l-4 -29q-19 -134 -74 -208q-60 -83 -159 -130zM515 704q-110 -54 -138 -128q-16 -42 -21 -81q-4 -21 -4 -42q0 -8 1 -16q5 -66 40 -94q25 -21 62 -21q14 0 31 3q57 10 88 48.5t44 106.5q3 8 4 17
q3 19 3 37q0 38 -12 73q-19 60 -98 97zM548 956q111 45 142 145q12 38 17 70q2 18 2 33q0 29 -8 51q-19 55 -86 59h-9q-62 0 -105 -52q-34 -42 -43 -108q-3 -24 -3 -52v-2q0 -101 93 -144z" />
    <glyph glyph-name="uniE037" unicode="&#xe037;" horiz-adv-x="885" 
d="M629 289q-98 -147 -246 -147q-1 0 -1 1q-150 0 -218 109q-51 81 -51 208q0 43 6 92q1 14 3 29q25 173 92 302q73 140 192 187q88 34 178 34q33 0 66 -5q125 -17 191.5 -126t77.5 -289q2 -35 2 -71q0 -106 -17 -228q-8 -58 -20 -118q-46 -237 -115 -385.5t-172 -210.5
q-102 -62 -230 -62q-3 0 -6 1q-133 1 -213 98q-55 66 -55 204q0 59 10 132l2 15h224q-5 -23 -8 -44q-4 -25 -4 -46q0 -73 44 -99q26 -18 55 -18q40 0 83 33q72 55 98 180q14 69 22 130q7 50 10 94zM646 479q6 34 10 64q10 72 10 125q0 54 -10 89q-26 85 -87 95q-9 1 -17 1
q-54 0 -107 -55q-56 -59 -78 -213l-3 -24q-3 -28 -3 -52q0 -123 91 -133q9 -2 20 -2q95 0 174 105z" />
  </font>
</defs>
</svg>
